<svg xmlns="http://www.w3.org/2000/svg" xmlns:xlink="http://www.w3.org/1999/xlink" version="1.1" x="0px" y="0px" viewBox="0 0 100 125" enable-background="new 0 0 100 100" xml:space="preserve"><path d="M50,5C25.146,5,5,25.146,5,50c0,24.854,20.146,45,45,45c24.854,0,45-20.146,45-45C95,25.146,74.854,5,50,5z M75.521,75.152  l-0.346,0.351c-1.271,1.29-2.951,1.997-4.738,1.997c-0.026,0-0.054,0-0.08-0.001c-1.816-0.021-3.512-0.771-4.771-2.11L43.683,52.082  c-1.054-1.053-3.144-1.384-4.563-1.152c-4.524,0.729-9.161-0.766-12.4-4.006c-2.925-2.925-4.438-6.971-4.153-11.1  c0.023-0.346,0.329-0.601,0.668-0.582c0.122,0.009,0.232,0.052,0.324,0.118c0.001,0,0.002,0.001,0.002,0.002l7.061,5.111  c1.077,0.78,2.395,1.087,3.703,0.867c1.311-0.221,2.452-0.942,3.216-2.031l0.284-0.408c0.765-1.091,1.058-2.421,0.824-3.743  c-0.233-1.323-0.962-2.472-2.054-3.235l-8.116-5.683c-0.085-0.061-0.154-0.141-0.201-0.233c-0.137-0.274-0.055-0.609,0.193-0.789  c5.71-4.124,13.476-3.498,18.463,1.492c3.234,3.235,4.731,7.866,4.005,12.386c-0.229,1.423,0.104,3.512,1.172,4.579l23.228,21.832  c1.338,1.259,2.095,2.956,2.13,4.784C77.501,72.119,76.811,73.846,75.521,75.152z"/><circle cx="70.564" cy="70.558" r="2.749"/><text x="0" y="115" fill="#000000" font-size="5px" font-weight="bold" font-family="'Helvetica Neue', Helvetica, Arial-Unicode, Arial, Sans-serif">Created by To Uyen</text><text x="0" y="120" fill="#000000" font-size="5px" font-weight="bold" font-family="'Helvetica Neue', Helvetica, Arial-Unicode, Arial, Sans-serif">from the Noun Project</text></svg>