<?xml version="1.0" encoding="UTF-8" standalone="no"?>
<!DOCTYPE svg PUBLIC "-//W3C//DTD SVG 1.1//EN" "http://www.w3.org/Graphics/SVG/1.1/DTD/svg11.dtd">
<svg width="100%" height="100%" viewBox="0 0 119 249" version="1.1" xmlns="http://www.w3.org/2000/svg" xmlns:xlink="http://www.w3.org/1999/xlink" xml:space="preserve" xmlns:serif="http://www.serif.com/" style="fill-rule:evenodd;clip-rule:evenodd;stroke-linejoin:round;stroke-miterlimit:2;">
    <g transform="matrix(0.900546,0,0,0.900546,74.1949,83.335)">
        <path d="M0,90.462C-1.361,90.247 -2.724,91.561 -2.604,92.923C-2.557,93.282 -2.437,93.64 -2.174,93.879C-1.457,92.756 -0.717,91.609 0,90.462M-4.755,93.568C-4.874,94.93 -4.993,96.292 -5.137,97.654C-4.134,97.129 -3.56,96.029 -3.369,94.93C-3.201,93.807 -3.393,92.684 -3.56,91.561C-4.396,91.657 -4.683,92.732 -4.755,93.568M-28.481,100.283C-28.41,100.952 -27.908,101.859 -27.334,101.525C-27.406,99.375 -27.454,97.224 -27.526,95.074C-27.55,94.548 -27.573,93.999 -27.908,93.616C-28.243,93.234 -29.007,93.234 -29.174,93.712C-29.222,93.855 -29.198,94.046 -29.198,94.213C-28.959,96.245 -28.72,98.275 -28.481,100.283M-29.509,100.832C-29.771,98.801 -30.011,96.77 -30.273,94.739C-30.321,94.333 -30.393,93.879 -30.68,93.592C-30.99,93.306 -31.564,93.282 -31.898,93.568C-31.851,95.241 -31.659,96.914 -31.325,98.586C-31.134,99.613 -30.584,100.88 -29.509,100.832M-13.356,101.382C-12.975,98.801 -12.879,96.149 -13.069,93.545C-13.619,93.138 -14.36,93.043 -15.005,93.306C-14.79,95.575 -14.527,97.845 -14.24,100.091C-14.169,100.665 -13.93,101.382 -13.356,101.382M-32.902,94.548C-32.95,94.094 -32.998,93.64 -33.236,93.258C-33.666,92.541 -34.574,92.326 -35.339,91.991C-35.339,94.93 -34.24,97.845 -32.305,100.044C-32.52,98.204 -32.71,96.388 -32.902,94.548M-24.993,101.645C-24.85,99.279 -24.682,96.89 -24.515,94.5C-24.491,94.237 -24.467,93.951 -24.634,93.712C-24.969,93.162 -25.829,93.449 -26.379,93.783C-26.474,96.412 -26.379,99.04 -26.116,101.645C-25.781,101.836 -25.351,101.836 -24.993,101.645M-8.721,100.187C-8.172,100.617 -7.312,100.354 -6.881,99.829C-6.427,99.303 -6.308,98.586 -6.212,97.917C-5.974,96.149 -5.878,94.357 -5.949,92.588C-6.714,92.565 -7.646,92.636 -8.052,93.306C-8.195,93.592 -8.243,93.903 -8.267,94.237C-8.41,96.221 -8.554,98.204 -8.721,100.187M-11.779,97.726C-11.827,98.323 -11.994,98.897 -12.042,99.47C-12.066,100.067 -11.923,100.712 -11.445,101.071C-10.967,101.406 -10.131,101.238 -10.012,100.641C-9.796,98.706 -9.581,96.77 -9.366,94.835C-9.295,94.357 -9.271,93.831 -9.533,93.449C-9.964,92.852 -10.967,92.947 -11.445,93.497C-11.946,94.023 -12.042,94.835 -11.971,95.551C-11.923,96.268 -11.731,97.009 -11.779,97.726M-41.098,65.493C-41.456,67.118 -40.142,68.934 -38.469,69.101C-37.083,69.244 -35.697,69.388 -34.288,69.507C-33.595,68.958 -33.81,67.763 -34.455,67.166C-35.1,66.568 -36.032,66.377 -36.916,66.233C-38.302,65.971 -39.688,65.732 -41.098,65.493M3.848,64.274C0.479,65.565 -3.059,66.401 -6.643,66.783C-6.953,66.807 -7.12,67.166 -7.191,67.476C-7.335,68.097 -7.335,68.766 -7.191,69.412C-4.205,68.504 -1.194,67.595 1.792,66.688C2.39,66.52 2.987,66.329 3.441,65.923C3.871,65.517 4.134,64.824 3.848,64.274M-41.145,70.248C-42.053,67.619 -42.507,64.848 -42.531,62.052C-42.531,61.192 -43.678,60.881 -44.538,60.714C-46.498,60.356 -48.337,59.424 -49.795,58.086C-48.768,62.124 -47.525,66.114 -46.067,70.033C-44.443,69.722 -42.746,69.794 -41.145,70.248M11.732,65.445C12.641,62.602 13.429,59.711 14.026,56.795C11.637,57.512 9.271,58.229 6.882,58.97C6.094,59.209 5.83,60.165 5.687,60.977C5.233,63.533 4.779,66.114 4.325,68.694C6.165,68.193 8.005,67.715 9.845,67.213C10.299,67.094 10.776,66.95 11.111,66.64C11.422,66.329 11.589,65.875 11.732,65.445M16.415,54.956C17.729,55.625 19.044,56.27 20.358,56.915C21.313,52.781 21.768,48.528 21.72,44.275C21.696,42.746 21.481,40.954 20.167,40.117C18.781,44.753 17.396,49.388 16.01,54.024C15.938,54.215 15.89,54.43 15.962,54.597C16.057,54.788 16.225,54.884 16.415,54.956M-49.915,72.183C-50.368,72.327 -50.894,72.542 -50.99,72.996C-51.038,73.258 -50.942,73.497 -50.846,73.736C-49.222,77.87 -47.573,81.98 -45.924,86.113C-45.757,86.544 -45.47,87.022 -45.016,86.998C-43.32,86.806 -41.551,87.093 -39.975,87.786C-42.197,82.529 -44.419,77.249 -46.641,71.992C-46.688,71.825 -46.76,71.681 -46.904,71.586C-47.119,71.395 -47.453,71.466 -47.74,71.562C-48.457,71.777 -49.198,71.968 -49.915,72.183M-8.1,62.769C-8.387,62.315 -9.008,62.315 -9.533,62.339C-12.066,62.53 -14.599,62.697 -17.155,62.888C-17.203,66.21 -17.203,69.531 -17.155,72.828C-17.155,73.45 -16.821,74.286 -16.248,74.071C-14.671,73.473 -12.998,73.187 -11.302,73.187C-10.537,73.187 -9.629,73.187 -9.199,72.542C-9.008,72.255 -8.937,71.897 -8.889,71.562C-8.554,68.934 -8.243,66.305 -7.98,63.677C-7.956,63.366 -7.933,63.032 -8.1,62.769M-22.914,73.879C-22.627,72.255 -22.58,70.606 -22.532,68.958C-22.484,66.664 -22.412,64.37 -22.365,62.1C-25.949,62.602 -29.509,63.104 -33.093,63.605C-33.093,66.902 -32.854,70.2 -32.376,73.473C-29.246,72.804 -25.949,72.948 -22.914,73.879M-51.945,57.345C-51.683,57.154 -51.42,56.939 -51.324,56.628C-51.229,56.341 -51.324,56.031 -51.42,55.744C-53.236,50.105 -54.622,44.299 -55.529,38.421C-57.154,39.52 -58.636,40.81 -59.926,42.244C-60.189,42.531 -60.428,42.817 -60.523,43.176C-60.595,43.51 -60.523,43.869 -60.452,44.227C-59.233,49.316 -57.393,54.287 -55.004,58.946C-53.905,58.564 -52.877,58.014 -51.945,57.345M10.729,86.878C11.039,85.23 11.732,83.676 12.306,82.123C13.812,78.061 14.695,73.832 15.579,69.579C15.627,69.292 15.675,68.982 15.556,68.718C15.364,68.265 14.814,68.145 14.337,68.097C13.166,67.954 11.685,68.097 11.35,69.22C9.462,75.504 6.763,81.55 3.369,87.165C5.759,86.52 8.292,86.424 10.729,86.878M-27.956,-55.029C-28.983,-54.432 -29.007,-52.854 -28.291,-51.899C-27.573,-50.943 -26.403,-50.489 -25.28,-50.107C-14.36,-46.451 -2.365,-46.045 8.77,-49.007C8.674,-50.035 8.555,-51.11 7.98,-51.97C7.407,-52.83 6.213,-53.38 5.329,-52.878C-2.557,-48.53 -12.258,-49.079 -20.955,-51.277C-23.583,-51.947 -26.331,-52.878 -27.956,-55.029M-33.141,83.461C-32.543,83.772 -31.827,84.465 -32.257,85.014C-35.53,83.509 -38.732,81.837 -41.862,80.045C-42.077,81.765 -40.357,83.079 -38.78,83.867C-37.203,84.656 -35.363,85.564 -35.052,87.284C-36.82,86.305 -38.517,85.23 -40.166,84.083C-40.5,85.158 -39.473,86.137 -38.469,86.639C-37.489,87.165 -36.295,87.619 -35.913,88.67C-36.916,88.359 -37.895,88.049 -38.899,87.738C-35.339,91.585 -29.652,93.282 -24.587,92.039C-24.133,86.83 -23.679,81.621 -23.201,76.412C-23.177,76.102 -23.153,75.767 -23.296,75.481C-23.511,75.074 -23.989,74.907 -24.443,74.812C-27.072,74.143 -29.843,74.095 -32.496,74.62C-33.332,74.812 -33.714,73.617 -33.69,72.756C-33.666,71.897 -33.833,70.726 -34.694,70.678C-36.558,70.606 -38.397,70.272 -40.166,69.746C-39.64,70.415 -39.52,71.395 -39.855,72.207C-41.312,71.084 -43.296,70.702 -45.088,71.132C-42.245,72.876 -39.401,74.596 -36.582,76.317C-36.844,77.082 -37.943,76.795 -38.612,76.365C-40.811,75.003 -43.009,73.617 -45.184,72.255C-44.514,75.05 -43.606,78.181 -41.05,79.471C-38.421,80.809 -35.769,82.123 -33.141,83.461M-0.645,89.315C0.12,88.957 0.885,88.55 1.506,87.977C2.198,87.308 2.677,86.424 3.131,85.564C6.046,80.068 8.507,74.358 10.49,68.48C9.104,68.025 7.718,69.101 6.356,69.627C5.592,69.937 4.659,70.057 3.942,69.65C3.226,69.244 2.892,68.121 3.489,67.548C0.263,68.48 -2.963,69.435 -6.188,70.367C-7.001,70.606 -8.028,71.18 -7.813,72.016C-7.574,72.972 -8.41,73.903 -9.343,74.214C-10.298,74.525 -11.302,74.405 -12.281,74.405C-13.5,74.429 -14.719,74.644 -15.842,75.098C-16.128,75.194 -16.415,75.337 -16.582,75.576C-16.797,75.887 -16.773,76.293 -16.726,76.675C-16.248,81.191 -15.77,85.707 -15.315,90.223C-15.221,91.012 -14.934,92.015 -14.121,92.063C-9.51,92.207 -4.851,91.274 -0.645,89.315M-16.797,17.585C-17.538,20.548 -18.542,23.535 -20.382,25.972C-23.989,30.751 -30.56,32.782 -36.486,31.754C-42.412,30.703 -47.621,26.976 -51.324,22.245C-48.099,29.078 -40.906,33.212 -33.619,35.124C-29.581,36.199 -25.112,36.653 -21.337,34.884C-16.415,32.567 -13.834,27.119 -12.353,21.886C-7.718,5.566 -9.892,-12.019 -14.886,-28.244C-15.984,-31.804 -17.251,-35.388 -19.449,-38.446C-21.624,-41.481 -24.874,-43.918 -28.577,-44.372C-30.608,-44.635 -32.974,-44.085 -33.977,-42.317C-32.376,-42.724 -30.751,-43.153 -29.079,-43.058C-25.495,-42.891 -22.365,-40.286 -20.572,-37.156C-18.78,-34.026 -18.111,-30.418 -17.49,-26.858C-14.981,-12.139 -13.142,3.106 -16.797,17.585M-3.153,-66.713C-4.038,-67.812 -4.945,-68.887 -6.116,-69.652C-8.721,-71.349 -12.258,-71.133 -15.077,-69.795C-17.872,-68.434 -20.095,-66.116 -22.078,-63.703C-23.798,-61.6 -25.375,-59.425 -26.833,-57.131C-27.072,-56.749 -27.311,-56.343 -27.263,-55.889C-27.167,-55.291 -26.57,-54.909 -26.02,-54.622C-16.415,-49.748 -4.587,-49.461 5.233,-53.882C5.544,-54.025 5.902,-54.216 5.926,-54.575C5.95,-54.814 5.807,-55.029 5.663,-55.22C2.867,-59.139 -0.071,-62.985 -3.153,-66.713M-32.998,101.167C-33.81,113.472 -39.401,125.419 -48.337,133.925C-49.078,134.594 -47.907,135.646 -46.952,135.909C-41.312,137.485 -35.363,137.94 -29.557,137.247C-29.103,137.199 -28.649,137.127 -28.314,136.84C-27.932,136.482 -27.812,135.957 -27.717,135.455C-25.949,125.18 -25.064,114.738 -25.112,104.297C-25.112,104.058 -25.136,103.795 -25.28,103.604C-25.423,103.413 -25.686,103.317 -25.925,103.246C-28.291,102.552 -30.656,101.859 -32.998,101.167M-6.522,101.812C-6.81,101.669 -7.12,101.716 -7.431,101.74C-9.533,101.955 -11.636,102.17 -13.739,102.409C-13.142,113.305 -11.445,124.153 -8.697,134.714C-8.578,135.12 -8.458,135.55 -8.124,135.789C-7.741,136.052 -7.216,135.981 -6.738,135.909C-0.86,134.786 4.923,133.137 10.49,130.939C10.753,130.843 11.039,130.724 11.135,130.461C11.254,130.174 11.087,129.863 10.92,129.601C5.329,120.568 -0.286,111.537 -5.878,102.505C-6.045,102.242 -6.236,101.955 -6.522,101.812M-29.581,-52.09C-30.751,-49.701 -31.946,-47.287 -33.141,-44.898C-28.696,-46.379 -23.631,-44.563 -20.286,-41.289C-16.94,-37.992 -15.125,-33.453 -14.073,-28.889C-13.906,-28.148 -12.95,-27.909 -12.186,-27.837C-3.153,-27.025 6.069,-28.434 14.433,-31.923C14.887,-32.09 15.34,-32.33 15.556,-32.736C15.746,-33.166 15.627,-33.667 15.508,-34.121C14.074,-38.972 12.043,-43.655 9.462,-48.004C-2.007,-44.85 -14.432,-45.208 -25.733,-48.984C-27.382,-49.533 -29.222,-50.393 -29.581,-52.09M-32.185,143.531C-32.352,141.882 -32.52,140.21 -32.71,138.561C-33.308,140.472 -33.619,142.504 -33.619,144.534C-34.431,142.718 -34.622,140.64 -34.192,138.68C-35.315,138.274 -35.96,139.995 -35.793,141.165C-35.626,142.36 -35.458,143.961 -36.605,144.343C-37.06,142.575 -37.083,140.712 -36.677,138.943C-37.107,138.274 -38.23,138.776 -38.445,139.517C-38.636,140.281 -38.326,141.07 -38.23,141.835C-38.159,142.623 -38.493,143.603 -39.258,143.674C-39.64,142.121 -39.64,140.472 -39.282,138.92C-39.688,138.561 -40.285,138.441 -40.787,138.608C-40.333,140.759 -40.596,143.053 -41.528,145.036C-41.671,142.838 -41.814,140.616 -41.958,138.418C-42.459,138.418 -42.961,138.441 -43.439,138.441C-43.176,143.363 -42.89,148.31 -42.603,153.232C-42.555,154.188 -42.483,155.167 -42.029,156.027C-41.289,157.365 -39.711,158.011 -38.254,158.464C-24.252,162.957 -8.578,161.834 4.636,155.406C5.09,155.167 5.592,154.904 5.878,154.474C6.213,153.997 6.236,153.375 6.261,152.778C6.452,146.494 6.452,140.186 6.284,133.901C5.807,133.567 5.113,133.878 4.827,134.379C4.54,134.881 4.54,135.479 4.564,136.052C4.684,139.301 4.779,142.575 4.898,145.825C3.178,142.79 3.346,139.11 3.561,135.646C3.608,134.786 2.198,134.546 1.649,135.192C1.1,135.861 1.171,136.816 1.291,137.677C1.673,140.592 2.055,143.531 2.461,146.446C1.888,146.78 1.386,145.944 1.267,145.299C0.693,142.24 0.287,139.158 0.072,136.076C0.048,135.67 -0.597,135.598 -0.86,135.885C-1.146,136.171 -1.146,136.626 -1.146,137.032C-1.123,139.469 -1.099,141.906 -1.075,144.319C-2.246,141.835 -2.652,138.991 -2.246,136.267C-3.44,135.646 -4.372,137.581 -4.109,138.896C-3.87,140.21 -3.393,141.93 -4.516,142.647C-4.922,140.496 -5.305,138.346 -5.687,136.195C-6.762,140.21 -6.38,144.606 -4.611,148.358C-13.786,146.566 -23.44,147.211 -32.281,150.269C-33.571,149.504 -32.71,147.593 -31.97,146.326C-30.584,144.009 -29.963,141.285 -30.202,138.608C-31.182,138.394 -31.635,139.827 -31.492,140.831C-31.349,141.835 -31.229,143.172 -32.185,143.531M16.559,-31.708C7.861,-27.622 -1.911,-25.878 -11.469,-26.714C-11.779,-26.738 -12.09,-26.762 -12.353,-26.642C-13.213,-26.284 -13.069,-25.066 -12.783,-24.182C-10.227,-16.129 -8.841,-7.719 -8.649,0.74C-8.625,1.696 -7.335,1.911 -6.38,1.839C3.823,1.003 13.858,-1.745 23.058,-6.237C21.72,-14.911 19.546,-23.465 16.559,-31.708M-31.755,148.692C-23.488,146.064 -14.623,145.466 -6.093,146.948C-9.414,137.414 -11.827,127.545 -13.285,117.558C-13.763,114.308 -14.145,111.035 -14.527,107.737C-16.463,90.988 -18.398,74.167 -18.661,57.297C-18.709,54.239 -18.732,51.061 -20.166,48.385C-20.74,51.348 -20.907,54.382 -21.074,57.417C-22.078,75.337 -23.105,93.258 -24.109,111.202C-24.826,124.033 -25.662,137.342 -31.755,148.692M-47.334,70.081C-48.576,66.066 -49.819,62.028 -51.062,58.014C-51.778,58.802 -52.543,59.615 -53.57,59.973C-54.574,60.332 -55.912,60.045 -56.366,59.089C-58.612,54.382 -60.332,49.412 -61.479,44.299C-67.691,51.276 -70.272,60.666 -72.59,69.722C-74.716,77.965 -76.748,86.281 -77.369,94.763C-77.631,98.347 -77.631,101.931 -77.631,105.515C-77.631,119.852 -77.536,134.69 -71.849,147.856C-71.539,148.572 -71.18,149.289 -70.535,149.695C-69.89,150.102 -69.078,150.078 -68.313,150.054C-65.302,149.958 -62.268,149.839 -59.257,149.719C-60.093,145.586 -60.906,141.428 -61.742,137.271C-62.363,134.212 -62.984,131.154 -63.128,128.024C-63.319,124.344 -62.817,120.64 -62.291,116.984C-61.479,111.393 -60.523,105.754 -58.349,100.522C-56.199,95.289 -52.71,90.438 -47.788,87.619C-47.429,87.404 -47.047,87.165 -46.952,86.758C-46.88,86.472 -46.999,86.161 -47.119,85.899C-48.863,81.669 -50.631,77.44 -52.375,73.211C-52.806,72.183 -51.635,71.156 -50.536,70.941C-49.437,70.702 -48.194,70.797 -47.334,70.081M21.027,57.679C20.19,58.42 18.925,57.608 18.017,56.939C17.132,56.246 15.483,55.935 15.173,57.01C14.241,60.26 13.333,63.486 12.401,66.735C13.452,66.735 14.552,66.735 15.508,67.19C16.463,67.667 17.18,68.742 16.894,69.746C15.388,75.074 13.883,80.403 12.377,85.707C12.306,85.994 12.21,86.305 12.21,86.591C12.234,87.451 12.927,88.097 13.548,88.67C20.979,95.551 24.826,105.731 25.256,115.837C25.71,125.945 22.986,136.004 18.853,145.227C18.279,146.494 20.167,147.354 21.553,147.401C24.874,147.473 28.219,147.091 31.445,146.302C31.971,146.159 32.521,146.016 32.902,145.633C33.285,145.251 33.452,144.726 33.596,144.2C35.388,137.677 37.203,131.154 38.995,124.63C40.645,118.705 42.293,112.755 43.033,106.638C43.918,99.303 43.464,91.896 43.01,84.512C42.843,81.693 42.675,78.874 42.03,76.126C41.433,73.473 40.405,70.964 39.282,68.504C35.053,59.161 29.437,50.44 22.724,42.698C23.034,47.334 22.651,51.993 21.576,56.485C21.481,56.915 21.361,57.369 21.027,57.679M-59.615,-6.858C-60.858,3.607 -57.346,14.551 -50.249,22.34C-46.665,26.259 -42.101,29.437 -36.94,30.512C-31.755,31.587 -25.925,30.273 -22.293,26.402C-19.88,23.845 -18.589,20.405 -17.729,16.988C-14.527,4.372 -16.104,-8.913 -17.777,-21.84C-18.47,-27.24 -19.234,-32.808 -22.125,-37.443C-23.153,-39.068 -24.491,-40.621 -26.283,-41.337C-28.434,-42.222 -30.871,-41.791 -33.141,-41.266C-38.159,-40.095 -43.224,-38.374 -46.928,-34.814C-49.102,-32.712 -50.703,-30.083 -52.161,-27.431C-55.697,-21.004 -58.731,-14.146 -59.615,-6.858M-49.484,48.122C-50.918,47.166 -52.137,45.876 -53.02,44.395C-53.618,45.876 -52.59,47.477 -51.467,48.6C-50.345,49.699 -49.006,50.822 -48.744,52.375C-50.01,51.706 -51.085,50.678 -51.802,49.46C-52.471,50.822 -51.133,52.279 -49.915,53.14C-48.672,54 -47.214,55.17 -47.477,56.652C-48.648,55.649 -49.819,54.621 -50.966,53.617C-50.273,56.676 -47.501,59.137 -44.371,59.495C-43.224,59.639 -41.623,59.925 -41.695,61.096C-41.838,62.721 -40.524,64.203 -39.019,64.824C-37.489,65.445 -35.793,65.421 -34.168,65.374C-34.766,64.656 -34.431,63.486 -33.714,62.888C-32.974,62.291 -32.018,62.148 -31.086,62.004C-28.147,61.574 -25.208,61.144 -22.293,60.714C-22.651,55.983 -22.149,51.18 -20.812,46.64C-19.139,46.76 -18.374,48.767 -18.136,50.416C-17.657,53.402 -17.514,56.437 -17.682,59.472C-17.777,61.216 -15.411,62.004 -13.691,61.67C-11.971,61.335 -10.202,60.451 -8.554,61.072C-6.833,61.693 -6.045,64.083 -7.049,65.612C-4.157,65.206 -1.266,64.585 1.554,63.796C2.987,63.414 4.707,62.506 4.54,61.048C4.301,59.137 6.284,57.703 8.148,57.226C9.988,56.724 12.066,56.676 13.572,55.481C14.887,54.43 15.46,52.71 15.938,51.108C21.338,32.949 23.774,13.905 23.105,-5.018C13.285,-0.192 2.438,2.556 -8.53,2.986C-8.769,9.438 -9.677,15.841 -11.206,22.125C-11.852,24.801 -12.64,27.501 -14.121,29.819C-17.107,34.502 -22.699,37.13 -28.219,37.25C-33.762,37.394 -39.186,35.219 -43.63,31.945C-48.099,28.672 -51.707,24.371 -54.884,19.855C-55.41,21.719 -54.669,23.869 -53.116,25.016C-52.185,25.709 -50.846,26.737 -51.539,27.669C-52.686,26.737 -53.833,25.829 -54.98,24.921C-54.311,27.286 -52.758,29.413 -50.703,30.727C-52.328,31.181 -53.713,29.556 -54.598,28.147C-55.434,29.365 -54.335,30.942 -53.212,31.874C-52.113,32.806 -50.75,33.953 -50.99,35.386C-52.28,34.455 -53.451,33.308 -54.406,32.017C-55.267,33.068 -54.335,34.646 -53.284,35.53C-52.232,36.414 -50.918,37.346 -50.942,38.708C-52.208,38.206 -53.284,37.25 -53.977,36.079C-54.932,37.107 -53.833,38.684 -52.734,39.544C-51.635,40.404 -50.321,41.623 -50.846,42.913C-51.85,41.909 -52.854,40.906 -53.857,39.902C-54.502,41.408 -53.307,43.056 -52.089,44.155C-50.87,45.254 -49.437,46.497 -49.484,48.122M-3.297,96.914C-4.086,98.228 -4.874,99.661 -4.755,101.167C-4.659,102.361 -4.014,103.437 -3.393,104.44C2.103,113.233 7.574,122.026 13.07,130.819C11.254,131.703 9.414,132.587 7.599,133.471L7.599,151.607C7.599,152.658 7.574,153.733 7.121,154.666C6.452,155.98 5.042,156.696 3.704,157.27C-9.079,162.837 -23.774,163.865 -37.227,160.137C-39.568,159.492 -42.077,158.537 -43.2,156.386C-43.893,155.096 -43.965,153.566 -44.013,152.085C-44.156,147.378 -44.275,142.67 -44.419,137.987C-46.426,137.175 -48.409,136.339 -50.416,135.526C-41.695,124.63 -32.448,111.68 -35.268,98.013C-36.199,93.449 -39.234,88.646 -43.893,88.192C-49.054,87.667 -53.044,92.612 -55.338,97.248C-62.889,112.373 -63.94,130.604 -58.229,146.518C-57.775,147.736 -57.393,149.313 -58.373,150.173C-58.779,150.508 -59.305,150.628 -59.807,150.723C-62.578,151.32 -65.422,151.918 -68.217,151.416C-70.989,150.914 -73.737,149.074 -74.406,146.326C-80.69,120.568 -80.379,93.234 -73.474,67.643C-70.511,56.604 -65.971,45.398 -57.106,38.206C-55.792,37.13 -55.673,35.171 -55.673,33.475C-55.721,26.808 -55.888,19.999 -58.253,13.762C-65.899,-6.428 -57.059,-31.493 -38.445,-42.436C-36.438,-43.607 -34.168,-44.802 -33.308,-46.976C-30.584,-53.786 -26.666,-60.118 -21.815,-65.59C-18.255,-69.604 -13.142,-73.403 -8.028,-71.85C-5.305,-70.99 -3.249,-68.768 -1.434,-66.546C19.426,-41.218 28.41,-6.524 22.484,25.757C21.29,32.28 19.928,40.165 24.897,44.586C38.422,56.676 44.539,75.433 44.706,93.568C44.897,111.704 39.76,129.457 33.882,146.613C30.059,148.142 25.901,148.836 21.768,148.644C19.546,148.548 16.583,146.948 17.538,144.941C25.232,128.597 27.216,107.905 16.463,93.401C14.36,90.582 11.47,87.905 7.957,87.762C2.867,87.571 -0.717,92.541 -3.297,96.914" style="fill:rgb(255,255,255);fill-rule:nonzero;"/>
    </g>
    <g transform="matrix(0.900546,0,0,0.900546,83.4043,54.0701)">
        <path d="M0,-0.86C-0.859,-0.358 -1.744,0.167 -2.628,0.669C-2.867,0 -2.557,-0.812 -1.935,-1.171C-1.313,-1.529 -0.454,-1.386 0,-0.86" style="fill:rgb(255,255,255);fill-rule:nonzero;"/>
    </g>
    <g transform="matrix(0.900546,0,0,0.900546,63.479,56.7386)">
        <path d="M0,-1.123C0.908,-1.338 1.864,-1.29 2.748,-0.98C3.154,-0.86 3.608,-0.502 3.441,-0.12C2.438,0.119 1.435,0.215 0.431,0.167C-0.119,0.143 -0.836,-0.167 -0.669,-0.669C-0.573,-0.932 -0.263,-1.052 0,-1.123" style="fill:rgb(255,255,255);fill-rule:nonzero;"/>
    </g>
    <g transform="matrix(-0.304939,-0.847346,-0.847346,0.304939,68.1419,80.7435)">
        <path d="M-2.111,-3.084C-2.308,-3.139 -2.518,-3.089 -2.682,-2.979C-2.942,-1.514 -2.747,0.015 -2.111,1.361C-1.648,1.448 -1.436,0.839 -1.431,0.355C-1.421,-0.817 -1.669,-1.998 -2.111,-3.084" style="fill:rgb(255,255,255);fill-rule:nonzero;"/>
    </g>
    <g transform="matrix(-0.359021,0.825885,0.825885,0.359021,77.6121,53.243)">
        <path d="M1.554,-1.091C0.791,-0.173 0.004,0.737 -0.76,1.655C0.055,1.879 0.954,1.488 1.554,0.888C2.162,0.267 2.514,-0.544 2.857,-1.332C2.722,-1.86 1.916,-1.506 1.554,-1.091" style="fill:rgb(255,255,255);fill-rule:nonzero;"/>
    </g>
    <g transform="matrix(0.900546,0,0,0.900546,73.3348,56.5673)">
        <path d="M0,-2.319C0.095,-2.366 0.19,-2.39 0.286,-2.39C0.717,-2.319 0.549,-1.65 0.215,-1.339C-0.86,-0.383 -2.39,0.071 -3.823,-0.192C-4.182,-0.431 -3.704,-0.957 -3.298,-1.1C-2.198,-1.507 -1.1,-1.913 0,-2.319" style="fill:rgb(255,255,255);fill-rule:nonzero;"/>
    </g>
    <g transform="matrix(-0.518556,-0.736262,-0.736262,0.518556,80.1384,78.8308)">
        <path d="M-2.018,-3.891C-2.454,-4.053 -2.763,-3.455 -2.805,-3.016C-2.942,-1.634 -2.66,-0.197 -2.018,1.048C-1.505,1.154 -1.333,0.36 -1.393,-0.181C-1.571,-1.429 -1.788,-2.651 -2.018,-3.891" style="fill:rgb(255,255,255);fill-rule:nonzero;"/>
    </g>
    <g transform="matrix(0.900546,0,0,0.900546,85.858,77.7176)">
        <path d="M0,1.458C1.171,0.431 2.652,-0.238 4.205,-0.43C4.396,-0.454 4.587,-0.454 4.755,-0.382C5.041,-0.286 5.185,0.072 5.065,0.359C3.822,0.789 2.58,1.219 1.361,1.649C0.884,1.816 0.19,1.912 0,1.458" style="fill:rgb(255,255,255);fill-rule:nonzero;"/>
    </g>
    <g transform="matrix(-0.265818,-0.86042,-0.86042,0.265818,74.909,78.7232)">
        <path d="M-2.301,-2.486C-3.009,-1.217 -3.217,0.298 -2.907,1.702C-2.839,2.007 -2.591,2.405 -2.301,2.291C-1.946,0.606 -1.598,-1.103 -1.303,-2.819C-1.476,-3.215 -2.096,-2.875 -2.301,-2.486" style="fill:rgb(255,255,255);fill-rule:nonzero;"/>
    </g>
    <g transform="matrix(0.900546,0,0,0.900546,33.1396,143.154)">
        <path d="M0,-1.697C-0.502,-1.195 -0.358,-0.192 0.263,0.167C0.669,-0.263 0.597,-1.028 0.143,-1.386M-1.123,-1.219C-1.147,-1.816 -1.099,-2.557 -0.55,-2.796C-0.215,-2.939 0.191,-2.796 0.501,-2.581C1.362,-2.008 1.768,-0.861 1.458,0.143C1.314,0.573 1.027,0.979 0.573,1.099C0.047,1.242 -0.526,0.884 -0.789,0.406C-1.052,-0.096 -1.099,-0.67 -1.123,-1.219" style="fill:rgb(255,255,255);fill-rule:nonzero;"/>
    </g>
    <g transform="matrix(0.900546,0,0,0.900546,69.1601,62.2251)">
        <path d="M0,0.144C0.071,-0.262 -0.335,-0.645 -0.765,-0.668C-1.171,-0.692 -1.577,-0.502 -1.959,-0.31C-1.721,0.478 -0.525,0.789 0.048,0.191M-2.867,-0.955C-2.365,-1.72 -1.267,-1.792 -0.358,-1.672C0.144,-1.601 0.646,-1.481 1.027,-1.147C1.625,-0.597 1.601,0.455 1.075,1.076C0.525,1.697 -0.358,1.936 -1.171,1.816C-2.461,1.602 -3.608,0.096 -2.867,-0.955" style="fill:rgb(255,255,255);fill-rule:nonzero;"/>
    </g>
    <g transform="matrix(0.900546,0,0,0.900546,87.9018,140.356)">
        <path d="M0,-0.358C-0.048,0.311 0.789,0.837 1.386,0.526C1.983,0.215 2.031,-0.764 1.458,-1.123C0.908,-1.481 0.024,-1.027 0,-0.358M-0.55,-1.601C-0.096,-2.054 0.573,-2.27 1.219,-2.27C1.553,-2.294 1.911,-2.246 2.223,-2.078C3.346,-1.529 3.273,0.287 2.317,1.123C1.481,1.864 0.071,1.936 -0.692,1.123C-1.386,0.383 -1.29,-0.907 -0.55,-1.601" style="fill:rgb(255,255,255);fill-rule:nonzero;"/>
    </g>
    <g transform="matrix(0.900546,0,0,0.900546,83.1467,140.915)">
        <path d="M0,-0.286C-0.024,-0.477 -0.072,-0.668 -0.12,-0.859C-0.932,-1.027 -1.936,-0.429 -1.936,0.407C-1.243,0.837 -0.239,0.526 0.096,-0.214M1.242,-1.146C1.648,-0.334 1.29,0.717 0.573,1.267C-0.168,1.793 -1.147,1.912 -2.031,1.721C-2.271,1.673 -2.533,1.602 -2.725,1.458C-3.536,0.885 -3.226,-0.406 -2.581,-1.122C-2.079,-1.672 -1.386,-2.102 -0.621,-2.15C0.119,-2.198 0.908,-1.815 1.242,-1.146" style="fill:rgb(255,255,255);fill-rule:nonzero;"/>
    </g>
    <g transform="matrix(0.900546,0,0,0.900546,61.2847,145.392)">
        <path d="M0,-1.291C-0.311,-0.861 -0.431,-0.287 -0.358,0.262C0.119,0.454 0.717,0.454 1.123,0.143C1.553,-0.144 1.72,-0.789 1.434,-1.219C1.123,-1.649 0.382,-1.673 0.119,-1.219M-1.123,1.409C-1.29,1.242 -1.386,1.027 -1.458,0.812C-1.816,-0.287 -1.529,-1.602 -0.621,-2.318C0.263,-3.035 1.744,-2.987 2.437,-2.079C3.034,-1.315 2.938,-0.144 2.342,0.621C1.768,1.385 0.74,1.744 -0.215,1.72C-0.55,1.696 -0.885,1.624 -1.123,1.409" style="fill:rgb(255,255,255);fill-rule:nonzero;"/>
    </g>
    <g transform="matrix(0.900546,0,0,0.900546,25.608,141.927)">
        <path d="M0,1.099C0.263,1.745 1.362,1.673 1.673,1.051C1.959,0.406 1.481,-0.406 0.789,-0.597C0.334,-0.741 -0.263,-0.597 -0.501,-0.167C-0.765,0.239 -0.525,0.908 -0.024,0.98M1.458,2.557C0.167,3.106 -1.505,2.174 -1.72,0.788C-1.959,-0.573 -0.669,-2.007 0.717,-1.911C2.126,-1.816 3.202,-0.215 2.772,1.099C2.581,1.745 2.079,2.294 1.458,2.557" style="fill:rgb(255,255,255);fill-rule:nonzero;"/>
    </g>
    <g transform="matrix(0.900546,0,0,0.900546,49.2562,143.412)">
        <path d="M0,2.532C0.693,2.699 1.481,2.078 1.481,1.361C1.481,0.453 0.263,-0.144 -0.454,0.406C-1.171,0.955 -0.884,2.293 0,2.532M-2.15,1.6C-2.318,-0.001 -0.55,-1.434 0.979,-0.98C1.864,-0.718 2.557,0.095 2.7,1.003C2.915,2.293 1.888,3.655 0.573,3.822C-0.717,3.966 -2.031,2.914 -2.15,1.6" style="fill:rgb(255,255,255);fill-rule:nonzero;"/>
    </g>
    <g transform="matrix(0.900546,0,0,0.900546,87.9018,88.2616)">
        <path d="M0,-2.413C-0.454,-2.389 -0.836,-2.031 -1.267,-1.911C-1.648,-1.792 -1.815,-1.338 -1.696,-0.979C-1.601,-0.621 -1.267,-0.358 -0.908,-0.263C-0.239,-0.047 0.573,-0.287 0.86,-0.908C1.147,-1.553 0.669,-2.413 0,-2.413M-1.696,0.813C-2.317,0.55 -2.844,0.048 -3.011,-0.621C-3.297,-1.696 -2.413,-2.795 -1.409,-3.297C-0.836,-3.584 -0.167,-3.751 0.478,-3.608C1.816,-3.297 2.485,-1.529 1.864,-0.334C1.219,0.884 -0.43,1.338 -1.696,0.813" style="fill:rgb(255,255,255);fill-rule:nonzero;"/>
    </g>
    <g transform="matrix(0.900546,0,0,0.900546,42.3921,151.653)">
        <path d="M0,5.089C-2.414,3.751 -4.803,2.413 -7.216,1.075C-7.503,0.931 -7.813,0.74 -7.981,0.454C-8.148,0.167 -8.148,-0.263 -7.885,-0.454C-5.09,1.027 -2.318,2.556 0.43,4.133C0.86,4.372 1.362,4.755 1.266,5.256C0.908,5.543 0.382,5.304 0,5.089" style="fill:rgb(255,255,255);fill-rule:nonzero;"/>
    </g>
    <g transform="matrix(0.900546,0,0,0.900546,80.2199,61.1922)">
        <path d="M0,2.103C0.837,1.84 1.123,0.526 0.431,-0.023C-0.358,-0.047 -1.146,0.239 -1.768,0.741C-2.126,1.052 -1.936,1.697 -1.505,1.936C-1.075,2.151 -0.573,2.079 -0.096,2.008M-1.911,3.011C-2.652,2.725 -3.369,2.103 -3.345,1.315C-3.345,1.028 -3.249,0.765 -3.13,0.526C-2.532,-0.668 -1.171,-1.505 0.144,-1.266C1.458,-1.027 2.461,0.455 2.031,1.721C1.529,3.178 -0.478,3.608 -1.911,3.011" style="fill:rgb(255,255,255);fill-rule:nonzero;"/>
    </g>
    <g transform="matrix(0.900546,0,0,0.900546,75.8737,89.3166)">
        <path d="M0,-0.98C-0.765,-1.147 -1.314,-0.001 -0.837,0.621C-0.358,1.242 0.669,1.194 1.267,0.692C1.792,0.262 2.055,-0.55 1.696,-1.124C1.361,-1.697 0.334,-1.769 0.048,-1.147M1.983,-2.605C2.413,-2.342 2.676,-1.912 2.867,-1.434C3.178,-0.574 3.13,0.501 2.532,1.218C1.911,1.911 0.908,2.126 0,2.198C-0.55,2.222 -1.1,2.222 -1.554,1.959C-2.223,1.553 -2.485,0.692 -2.318,-0.072C-2.175,-0.813 -1.649,-1.458 -1.075,-1.959C-0.239,-2.7 1.051,-3.202 1.983,-2.605" style="fill:rgb(255,255,255);fill-rule:nonzero;"/>
    </g>
    <g transform="matrix(0.900546,0,0,0.900546,99.8657,198.755)">
        <path d="M0,-2.294C-0.023,-1.721 -0.071,-1.171 -0.119,-0.622C-0.144,-0.358 -0.144,-0.072 -0.048,0.167C0.144,0.693 0.884,0.884 1.338,0.549C1.888,-0.263 2.055,-1.338 1.721,-2.294C1.505,-2.915 0.717,-3.513 0.263,-3.059C0.071,-2.867 0.024,-2.557 0,-2.294M-0.048,1.935C-1.242,1.434 -1.434,-0.191 -1.314,-1.482C-1.219,-2.724 -0.74,-4.23 0.478,-4.444C1.171,-4.588 1.888,-4.182 2.317,-3.632C2.724,-3.059 2.892,-2.342 2.963,-1.625C3.034,-0.693 2.939,0.287 2.39,1.051C1.863,1.816 0.812,2.294 -0.048,1.935" style="fill:rgb(255,255,255);fill-rule:nonzero;"/>
    </g>
    <g transform="matrix(0.900546,0,0,0.900546,12.1381,198.885)">
        <path d="M0,1.098C0.12,0.573 0.215,0.023 0.048,-0.479C-0.12,-1.005 -0.573,-1.435 -1.099,-1.411C-2.246,-0.455 -2.437,1.409 -1.529,2.579C-0.789,2.89 -0.167,1.887 0,1.098M-2.867,-0.646C-2.772,-1.1 -2.652,-1.578 -2.366,-1.936C-1.601,-2.844 0,-2.534 0.693,-1.578C1.362,-0.598 1.29,0.716 0.932,1.839C0.621,2.819 -0.072,3.822 -1.099,3.894C-2.031,3.942 -2.843,3.105 -3.083,2.173C-3.297,1.242 -3.106,0.286 -2.867,-0.646" style="fill:rgb(255,255,255);fill-rule:nonzero;"/>
    </g>
    <g transform="matrix(0.900546,0,0,0.900546,43.0593,102.7)">
        <path d="M0,4.301C2.055,4.516 4.181,4.683 6.141,4.086C8.124,3.489 9.94,1.912 10.203,-0.143C10.25,-0.478 10.274,-0.836 10.465,-1.123C10.657,-1.386 11.11,-1.505 11.326,-1.242C11.397,-1.123 11.421,-1.003 11.421,-0.86C11.564,1.099 10.394,2.987 8.769,4.086C7.168,5.185 5.161,5.615 3.202,5.735C1.935,5.806 0.358,5.52 0,4.301" style="fill:rgb(255,255,255);fill-rule:nonzero;"/>
    </g>
    <g transform="matrix(0.900546,0,0,0.900546,34.1295,66.0344)">
        <path d="M0,-10.944C0.334,-11.063 0.717,-11.159 1.051,-11.039C1.386,-10.896 1.577,-10.442 1.338,-10.179C-2.772,-9.247 -6.117,-5.591 -6.667,-1.41C-6.762,-0.813 -6.834,-0.096 -7.383,0.215C-8.029,-1.004 -7.79,-2.509 -7.312,-3.799C-6.093,-7.097 -3.321,-9.797 0,-10.944" style="fill:rgb(255,255,255);fill-rule:nonzero;"/>
    </g>
    <g transform="matrix(0.900546,0,0,0.900546,22.8968,169.276)">
        <path d="M0,-14.958C-3.632,-21.29 -6.308,-28.147 -7.861,-35.244C-14.193,-18.04 -15.698,0.908 -12.209,18.9C-10.059,8.578 -7.741,-2.15 -1.338,-10.514C-0.334,-11.828 0.812,-13.548 0,-14.958M-7.431,-38.732C-5.782,-30.561 -3.226,-22.508 1.123,-15.412C2.342,-13.405 0.669,-10.991 -0.741,-9.127C-7.288,-0.502 -9.581,10.561 -11.182,21.29C-11.326,22.173 -11.469,23.105 -12.066,23.774C-17.418,3.178 -15.77,-19.163 -7.431,-38.732" style="fill:rgb(255,255,255);fill-rule:nonzero;"/>
    </g>
    <g transform="matrix(0.900546,0,0,0.900546,97.7357,190.148)">
        <path d="M0,-59.735C1.051,-51.229 -3.369,-43.081 -8.148,-35.984C-8.889,-34.885 -8.053,-33.427 -7.264,-32.352C-0.598,-23.225 3.417,-12.21 4.182,-0.932C6.068,-6.069 6.666,-11.565 7.024,-17.012C7.956,-31.611 6.977,-46.88 0,-59.735M3.369,2.055C2.843,-10.943 -1.84,-23.751 -9.82,-34.049C-10.514,-34.981 -9.701,-36.247 -8.937,-37.155C-3.25,-43.869 -0.358,-52.901 -1.1,-61.671C-0.048,-61.79 0.717,-60.738 1.219,-59.807C8.769,-45.781 9.175,-29.055 7.837,-13.165C7.383,-7.813 6.643,-2.198 3.369,2.055" style="fill:rgb(255,255,255);fill-rule:nonzero;"/>
    </g>
</svg>
