<svg xmlns="http://www.w3.org/2000/svg" xmlns:xlink="http://www.w3.org/1999/xlink" xml:space="preserve" style="shape-rendering:geometricPrecision;text-rendering:geometricPrecision;image-rendering:optimizeQuality;" viewBox="0 0 6827 8533.75" x="0px" y="0px" fill-rule="evenodd" clip-rule="evenodd"><defs><style type="text/css">
   
    .fil2 {fill:none}
    .fil1 {fill:black}
    .fil0 {fill:black;fill-rule:nonzero}
   
  </style></defs><g><g><path class="fil0" d="M2927 3015c128,-128 297,-193 465,-193 168,0 336,64 465,193 128,128 193,297 193,465 0,168 -64,336 -193,465 -128,128 -297,193 -465,193 -168,0 -336,-64 -465,-193 -128,-128 -193,-297 -193,-465 0,-168 64,-336 193,-465z"/><path class="fil0" d="M1002 3176c94,-94 218,-141 342,-141 124,0 247,47 342,141 94,94 141,218 141,342 0,124 -47,247 -141,342 -94,94 -218,141 -342,141 -124,0 -247,-47 -342,-141 -94,-94 -142,-218 -142,-342 0,-124 47,-247 142,-342z"/><path class="fil0" d="M2044 2095c60,-60 140,-91 219,-91 79,0 159,30 219,91l0 0c60,60 91,140 91,219 0,79 -30,159 -91,219l0 0 0 0c-60,60 -140,91 -219,91 -79,0 -159,-30 -219,-91l0 0 0 0c-60,-60 -91,-140 -91,-219 0,-79 30,-159 91,-219l0 0z"/><path class="fil0" d="M5164 3148c92,-92 212,-138 332,-138 120,0 240,46 332,138 92,92 138,212 138,332 0,120 -46,240 -138,332 -92,92 -212,138 -332,138 -120,0 -240,-46 -332,-138 -92,-92 -138,-212 -138,-332 0,-120 46,-240 138,-332z"/><path class="fil0" d="M3069 5034c107,-107 248,-161 389,-161 141,0 282,54 389,161 107,107 161,248 161,389 0,141 -54,282 -161,389 -107,107 -248,161 -389,161 -141,0 -282,-54 -389,-161 -107,-107 -161,-248 -161,-389 0,-141 54,-282 161,-389z"/><path class="fil0" d="M3998 1014c107,-107 248,-161 389,-161 141,0 282,54 389,161 107,107 161,248 161,389 0,141 -54,282 -161,389 -107,107 -248,161 -389,161 -141,0 -282,-54 -389,-161l0 0c-107,-107 -161,-248 -161,-389 0,-141 54,-282 161,-389l0 0z"/><path class="fil1" d="M3731 2960c-19,40 -68,57 -108,38 -40,-19 -58,-68 -38,-108l509 -1061c19,-40 68,-57 108,-38 40,19 58,68 38,108l-509 1061z"/><path class="fil1" d="M2391 2563c-31,-32 -30,-83 2,-115 32,-31 84,-31 115,2l512 529c31,32 30,83 -2,115 -32,31 -84,31 -115,-2l-512 -529z"/><path class="fil1" d="M1787 3591c-45,1 -82,-35 -82,-80 -1,-45 35,-82 80,-82l988 -18c45,-1 82,35 82,80 1,45 -35,82 -80,82l-988 18z"/><path class="fil1" d="M5070 3399c45,0 81,36 81,81 0,45 -36,81 -81,81l-1072 0c-45,0 -81,-36 -81,-81 0,-45 36,-81 81,-81l1072 0z"/><path class="fil1" d="M3521 4907c2,45 -34,82 -79,84 -45,1 -82,-34 -84,-78l-28 -810c-2,-45 34,-82 79,-84 45,-1 82,34 84,78l28 810z"/></g></g><rect class="fil2" width="6827" height="6827"/><text x="0" y="6842" fill="#000000" font-size="5px" font-weight="bold" font-family="'Helvetica Neue', Helvetica, Arial-Unicode, Arial, Sans-serif">Created by IYIKON</text><text x="0" y="6847" fill="#000000" font-size="5px" font-weight="bold" font-family="'Helvetica Neue', Helvetica, Arial-Unicode, Arial, Sans-serif">from the Noun Project</text></svg>