<?xml version="1.0" encoding="iso-8859-1"?>
<!-- Generator: Adobe Illustrator 19.0.0, SVG Export Plug-In . SVG Version: 6.00 Build 0)  -->
<svg version="1.1" id="Layer_1" xmlns="http://www.w3.org/2000/svg" xmlns:xlink="http://www.w3.org/1999/xlink" x="0px" y="0px"
	 viewBox="0 0 512 512" style="enable-background:new 0 0 512 512;" xml:space="preserve">
<circle style="fill:#FFDA44;" cx="256" cy="428.973" r="55.351"/>
<path style="fill:#FF9811;" d="M290.595,401.297c0,16.812-8.271,33.84-24.583,50.612c-3.363,3.458-6.765,6.58-10.012,9.335
	c-3.246-2.755-6.649-5.877-10.012-9.335c-16.312-16.771-24.583-33.8-24.583-50.612H290.595 M256,359.784l-76.108,41.514
	C179.892,470.487,256,512,256,512s76.108-41.513,76.108-110.703L256,359.784z"/>
<path style="fill:#FF5023;" d="M256,359.784v41.514h34.595c0,16.812-8.271,33.84-24.583,50.612
	c-3.363,3.458-6.765,6.58-10.012,9.335V512c0,0,76.108-41.513,76.108-110.703L256,359.784z"/>
<polygon style="fill:#3C5D76;" points="84.522,252.827 65.075,359.784 262.919,359.784 262.919,74.43 "/>
<polygon style="fill:#1E2E3B;" points="427.479,252.827 249.081,74.43 249.081,359.784 446.925,359.784 "/>
<path style="fill:#CCE9F9;" d="M332.108,401.297V110.703C332.108,41.514,256,0,256,0s-76.108,41.514-76.108,110.703v290.595H332.108
	z"/>
<path style="fill:#93C7EF;" d="M332.108,401.297V110.703C332.108,41.514,256,0,256,0v401.297H332.108z"/>
<g>
	<path style="fill:#1E2E3B;" d="M283.676,110.703c0-15.285-12.392-27.676-27.676-27.676l0,0c-15.284,0-27.676,12.39-27.676,27.676
		H283.676z"/>
	<rect x="235.243" y="262.919" style="fill:#1E2E3B;" width="41.514" height="96.865"/>
</g>
<rect x="179.892" y="359.784" style="fill:#78B9EB;" width="152.216" height="41.514"/>
<rect x="256" y="359.784" style="fill:#5A8BB0;" width="76.108" height="41.514"/>
<g>
</g>
<g>
</g>
<g>
</g>
<g>
</g>
<g>
</g>
<g>
</g>
<g>
</g>
<g>
</g>
<g>
</g>
<g>
</g>
<g>
</g>
<g>
</g>
<g>
</g>
<g>
</g>
<g>
</g>
</svg>
