<?xml version="1.0" encoding="UTF-8" standalone="no"?>
<!DOCTYPE svg PUBLIC "-//W3C//DTD SVG 1.1//EN" "http://www.w3.org/Graphics/SVG/1.1/DTD/svg11.dtd">
<svg version="1.1" xmlns="http://www.w3.org/2000/svg" xmlns:xlink="http://www.w3.org/1999/xlink" preserveAspectRatio="xMidYMid meet" viewBox="0 0 200 200" width="200" height="200"><defs><path d="M166.27 91.52C170.61 112.47 164.18 134 149.08 149.11C133.98 164.21 112.45 170.63 91.51 166.29C88.57 165.68 85.74 167.56 85.14 170.48C84.53 173.4 86.41 176.25 89.32 176.85C94.37 177.9 99.44 178.41 104.47 178.41C123.88 178.41 142.66 170.78 156.7 156.73C174.39 139.05 181.91 113.85 176.82 89.33C176.22 86.41 173.35 84.54 170.45 85.14C167.53 85.74 165.66 88.6 166.27 91.52Z" id="d15yw4hexk"></path><path d="M76.28 165.21C76.31 165.02 76.33 164.84 76.35 164.64C76.36 164.47 76.36 164.3 76.35 164.13C76.35 163.97 76.33 163.82 76.32 163.66C76.29 163.45 76.25 163.25 76.2 163.05C76.17 162.93 76.14 162.8 76.1 162.68C76.03 162.47 75.95 162.26 75.85 162.05C75.8 161.94 75.75 161.84 75.69 161.73C75.62 161.61 75.58 161.49 75.5 161.37C75.44 161.28 75.36 161.21 75.3 161.12C75.24 161.04 75.18 160.97 75.12 160.9C74.94 160.68 74.76 160.48 74.55 160.3C74.51 160.26 74.47 160.23 74.42 160.19C74.18 159.99 73.92 159.81 73.65 159.65C73.63 159.64 73.62 159.63 73.61 159.62C68.54 156.79 63.87 153.25 59.72 149.11C47.79 137.17 41.21 121.3 41.21 104.42C41.21 87.54 47.79 71.67 59.72 59.73C84.36 35.09 124.45 35.09 149.08 59.73C153.22 63.87 156.76 68.54 159.59 73.61C159.61 73.65 159.64 73.68 159.66 73.71C159.8 73.94 159.95 74.15 160.11 74.35C160.18 74.44 160.24 74.52 160.31 74.59C160.47 74.77 160.64 74.93 160.83 75.09C160.92 75.17 161.02 75.24 161.11 75.32C161.2 75.38 161.27 75.45 161.35 75.51C161.43 75.56 161.51 75.57 161.59 75.62C161.9 75.79 162.21 75.94 162.55 76.05C162.68 76.1 162.81 76.15 162.94 76.19C163.31 76.28 163.69 76.33 164.08 76.35C164.15 76.35 164.21 76.38 164.28 76.38C164.38 76.38 164.48 76.35 164.57 76.34C164.81 76.33 165.05 76.3 165.29 76.26C165.44 76.23 165.59 76.2 165.75 76.16C166.02 76.08 166.29 75.97 166.55 75.85C166.66 75.8 166.77 75.77 166.87 75.71C166.89 75.7 166.91 75.7 166.93 75.69C167.28 75.49 167.59 75.26 167.88 75C167.93 74.96 167.97 74.9 168.03 74.85C168.29 74.6 168.52 74.32 168.72 74.03C168.75 73.99 168.79 73.96 168.81 73.92C181.08 55.02 193.25 30.05 181.6 18.39C174.52 11.31 161.7 12.24 143.49 21.17C140.82 22.48 139.72 25.71 141.03 28.38C142.34 31.05 145.56 32.16 148.24 30.85C163.38 23.43 171.57 23.61 173.97 26.02C177.38 29.43 175.47 41.62 164.18 60.89C161.92 57.79 159.44 54.84 156.7 52.1C127.86 23.26 80.94 23.26 52.1 52.1C38.13 66.08 30.43 84.66 30.43 104.42C30.43 124.18 38.13 142.76 52.1 156.73C54.83 159.47 57.78 161.95 60.88 164.21C54.3 168.08 48.17 171.07 42.88 172.98C34.65 175.95 28.35 176.34 26.01 174C23.61 171.59 23.43 163.41 30.85 148.27C32.16 145.6 31.06 142.37 28.38 141.05C25.7 139.74 22.48 140.85 21.17 143.52C12.24 161.73 11.31 174.55 18.39 181.63C21.5 184.75 25.76 186.31 31.1 186.31C35.51 186.31 40.67 185.25 46.55 183.12C54.5 180.25 63.61 175.51 73.61 169.04C73.67 169 73.72 168.96 73.78 168.93C73.82 168.9 73.87 168.87 73.92 168.84C74.1 168.72 74.26 168.57 74.42 168.43C74.63 168.26 74.83 168.07 75.02 167.86C75.21 167.63 75.4 167.4 75.55 167.15C75.59 167.08 75.65 167.03 75.69 166.97C75.75 166.85 75.79 166.73 75.84 166.61C75.9 166.49 75.95 166.37 76 166.25C76.08 166.04 76.14 165.84 76.19 165.63C76.23 165.49 76.26 165.36 76.28 165.21Z" id="acIpDZo1u"></path><path d="M107.84 50.06L108.65 50.09L109.45 50.15L110.24 50.22L111.04 50.3L111.83 50.4L112.62 50.52L113.4 50.65L114.18 50.8L114.95 50.96L115.72 51.13L116.49 51.32L117.25 51.53L118 51.75L118.76 51.98L119.5 52.23L120.24 52.5L120.98 52.77L121.71 53.07L122.43 53.37L123.15 53.69L123.86 54.03L124.56 54.38L125.26 54.74L125.95 55.12L126.64 55.51L127.31 55.91L127.98 56.33L128.64 56.76L129.3 57.21L129.95 57.66L130.58 58.14L131.21 58.62L131.84 59.12L132.45 59.63L133.05 60.16L133.65 60.69L134.24 61.24L134.81 61.81L134.94 61.93L135.07 62.06L135.19 62.19L135.32 62.32L135.44 62.45L135.56 62.57L135.68 62.7L135.8 62.83L135.93 62.96L136.05 63.09L136.16 63.23L136.28 63.36L136.4 63.49L136.52 63.62L136.63 63.76L136.75 63.89L136.87 64.02L136.98 64.16L137.09 64.29L137.21 64.43L137.32 64.57L137.43 64.7L137.54 64.84L137.65 64.98L137.76 65.11L137.87 65.25L137.98 65.39L138.09 65.53L138.2 65.67L138.3 65.81L138.41 65.95L138.52 66.09L138.62 66.23L138.73 66.37L138.83 66.51L138.93 66.65L139.04 66.79L139.14 66.93L139.24 67.08L139.34 67.22L139.94 67.77L140.53 68.33L141.1 68.91L141.66 69.49L142.2 70.08L142.74 70.69L143.26 71.3L143.76 71.92L144.25 72.55L144.73 73.2L145.19 73.85L145.64 74.5L146.08 75.17L146.5 75.85L146.91 76.53L147.3 77.22L147.68 77.92L148.04 78.63L148.39 79.34L148.72 80.06L149.04 80.79L149.34 81.53L149.63 82.27L149.9 83.01L150.15 83.77L150.39 84.52L150.62 85.29L150.83 86.06L151.02 86.83L151.19 87.61L151.35 88.4L151.5 89.19L151.63 89.98L151.74 90.78L151.83 91.58L151.91 92.38L151.97 93.19L152.01 94L152.04 94.82L152.04 95.63L152.03 96.5L152.01 97.37L151.96 98.23L151.89 99.08L151.8 99.94L151.7 100.79L151.58 101.63L151.44 102.47L151.28 103.31L151.1 104.14L150.9 104.96L150.69 105.78L150.45 106.6L150.2 107.4L149.94 108.2L149.65 109L149.35 109.79L149.03 110.57L148.69 111.34L148.34 112.11L147.97 112.86L147.58 113.61L147.17 114.35L146.75 115.08L146.31 115.81L145.86 116.52L145.39 117.22L144.91 117.92L144.4 118.6L143.89 119.27L143.35 119.94L142.81 120.59L142.24 121.23L141.66 121.86L141.07 122.48L140.46 123.09L139.83 123.68L139.19 124.26L138.54 124.83L137.87 125.39L137.8 125.45L137.72 125.5L137.65 125.56L137.57 125.61L137.49 125.67L137.42 125.72L137.34 125.77L137.26 125.82L137.18 125.87L137.1 125.91L137.02 125.96L136.93 126L136.85 126.04L136.77 126.08L136.69 126.12L136.6 126.16L136.52 126.19L136.43 126.23L136.35 126.26L136.26 126.29L136.17 126.32L136.09 126.35L136 126.37L135.91 126.4L135.82 126.42L135.73 126.44L135.65 126.47L135.56 126.48L135.47 126.5L135.38 126.52L135.29 126.53L135.2 126.55L135.11 126.56L135.02 126.57L134.93 126.58L134.84 126.58L134.74 126.59L134.65 126.59L134.56 126.59L134.47 126.59L134.41 126.59L134.34 126.59L134.27 126.59L134.21 126.59L134.14 126.58L134.08 126.58L134.01 126.57L133.94 126.57L133.88 126.56L133.81 126.55L133.75 126.55L133.68 126.54L133.62 126.53L133.55 126.52L133.48 126.5L133.42 126.49L133.35 126.48L133.29 126.46L133.22 126.45L133.16 126.43L133.09 126.42L133.03 126.4L132.97 126.38L132.9 126.36L132.84 126.34L132.77 126.32L132.71 126.3L132.65 126.28L132.58 126.25L132.52 126.23L132.46 126.2L132.39 126.18L132.33 126.15L132.27 126.12L132.21 126.1L132.14 126.07L132.08 126.04L132.02 126.01L131.96 125.97L131.9 125.94L99.91 108.58L99.83 108.6L99.74 108.63L99.66 108.65L99.58 108.67L99.5 108.69L99.41 108.71L99.33 108.73L99.25 108.74L99.17 108.76L99.08 108.78L99 108.8L98.92 108.81L98.83 108.83L98.75 108.85L98.66 108.86L98.58 108.88L98.5 108.89L98.41 108.91L98.33 108.92L98.24 108.93L98.16 108.95L98.07 108.96L97.99 108.97L97.9 108.98L97.81 108.99L97.73 109L97.64 109.01L97.56 109.02L97.47 109.03L97.38 109.03L97.3 109.04L97.21 109.05L97.12 109.05L97.04 109.06L96.95 109.06L96.86 109.06L96.77 109.07L96.68 109.07L96.6 109.07L96.51 109.07L95.95 109.06L95.4 109.03L94.86 108.97L94.32 108.89L93.79 108.8L93.27 108.68L92.76 108.54L92.25 108.38L91.75 108.21L91.27 108.01L90.79 107.8L90.32 107.57L89.86 107.32L89.41 107.05L88.98 106.77L88.55 106.47L88.14 106.16L87.74 105.83L87.36 105.49L86.98 105.13L86.62 104.76L86.28 104.37L85.95 103.98L85.63 103.56L85.34 103.14L85.05 102.71L84.79 102.26L84.54 101.8L84.31 101.34L84.09 100.86L83.9 100.37L83.72 99.88L83.56 99.37L83.42 98.86L83.31 98.34L83.21 97.81L83.13 97.28L83.08 96.73L83.04 96.19L83.03 95.63L83.04 95.08L83.08 94.53L83.13 93.99L83.21 93.46L83.31 92.93L83.42 92.41L83.56 91.9L83.72 91.39L83.9 90.9L84.09 90.41L84.31 89.93L84.54 89.46L84.79 89.01L85.05 88.56L85.34 88.13L85.63 87.7L85.95 87.29L86.28 86.89L86.62 86.51L86.98 86.14L87.36 85.78L87.74 85.44L88.14 85.11L88.55 84.79L88.98 84.5L89.41 84.21L89.86 83.95L90.32 83.7L90.79 83.47L91.27 83.25L91.75 83.06L92.25 82.88L92.76 82.73L93.27 82.59L93.79 82.47L94.32 82.37L94.86 82.3L95.4 82.24L95.95 82.21L96.51 82.2L96.6 82.2L96.68 82.2L96.77 82.2L96.86 82.2L96.95 82.21L97.04 82.21L97.12 82.22L97.21 82.22L97.3 82.23L97.38 82.23L97.47 82.24L97.56 82.25L97.64 82.26L97.73 82.27L97.81 82.28L97.9 82.29L97.99 82.3L98.07 82.31L98.16 82.32L98.24 82.33L98.33 82.35L98.41 82.36L98.5 82.37L98.58 82.39L98.66 82.4L98.75 82.42L98.83 82.44L98.92 82.45L99 82.47L99.08 82.49L99.17 82.51L99.25 82.52L99.33 82.54L99.41 82.56L99.5 82.58L99.58 82.6L99.66 82.62L99.74 82.64L99.83 82.66L99.91 82.68L126.11 68.47L125.7 68.1L125.28 67.74L124.86 67.39L124.43 67.05L124 66.72L123.56 66.4L123.11 66.08L122.66 65.78L122.21 65.48L121.75 65.19L121.28 64.91L120.81 64.64L120.34 64.38L119.86 64.12L119.38 63.88L118.89 63.64L118.4 63.42L117.91 63.2L117.41 62.99L116.91 62.79L116.4 62.6L115.89 62.42L115.38 62.25L114.87 62.09L114.35 61.93L113.82 61.79L113.3 61.66L112.77 61.53L112.24 61.42L111.7 61.31L111.17 61.22L110.63 61.13L110.08 61.06L109.54 60.99L108.99 60.94L108.44 60.89L107.89 60.86L107.34 60.83L106.79 60.82L106.23 60.81L105.64 60.82L105.04 60.83L104.46 60.86L103.87 60.9L103.28 60.95L102.7 61.02L102.12 61.09L101.54 61.17L100.97 61.27L100.4 61.38L99.83 61.5L99.26 61.62L98.7 61.76L98.14 61.91L97.59 62.08L97.04 62.25L96.49 62.43L95.95 62.62L95.41 62.83L94.87 63.04L94.34 63.27L93.81 63.5L93.29 63.75L92.77 64L92.26 64.27L91.76 64.55L91.25 64.83L90.76 65.13L90.26 65.44L89.78 65.75L89.3 66.08L88.82 66.42L88.36 66.76L87.89 67.12L87.44 67.48L86.99 67.86L86.54 68.24L86.11 68.64L85.67 69.04L85.25 69.46L84.84 69.88L84.43 70.3L84.03 70.74L83.65 71.18L83.27 71.63L82.9 72.08L82.55 72.54L82.2 73L81.86 73.48L81.53 73.95L81.22 74.43L80.91 74.92L80.61 75.42L80.32 75.92L80.05 76.42L79.78 76.93L79.52 77.44L79.28 77.96L79.04 78.48L78.81 79.01L78.6 79.54L78.39 80.08L78.2 80.62L78.02 81.16L77.84 81.71L77.68 82.26L77.53 82.81L77.39 83.37L77.26 83.93L77.14 84.5L77.03 85.06L76.94 85.64L76.85 86.21L76.78 86.78L76.72 87.36L76.66 87.94L76.62 88.53L76.6 89.11L76.58 89.7L76.57 90.29L76.58 90.76L76.59 91.24L76.61 91.71L76.63 92.18L76.67 92.65L76.71 93.12L76.76 93.59L76.81 94.05L76.87 94.52L76.94 94.98L77.02 95.44L77.11 95.9L77.2 96.35L77.3 96.81L77.4 97.26L77.52 97.71L77.64 98.16L77.77 98.61L77.9 99.05L78.04 99.49L78.19 99.93L78.35 100.37L78.51 100.81L78.68 101.24L78.86 101.67L79.05 102.1L79.24 102.52L79.44 102.94L79.64 103.36L79.85 103.78L80.07 104.19L80.3 104.6L80.53 105.01L80.77 105.41L81.02 105.81L81.27 106.21L81.53 106.6L81.8 106.99L82.07 107.38L82.35 107.76L82.41 107.85L82.47 107.93L82.53 108.01L82.58 108.1L82.63 108.19L82.69 108.27L82.74 108.36L82.78 108.45L82.83 108.54L82.88 108.63L82.92 108.72L82.96 108.81L83 108.91L83.04 109L83.07 109.09L83.11 109.19L83.14 109.28L83.17 109.38L83.2 109.47L83.22 109.57L83.25 109.66L83.27 109.76L83.29 109.86L83.31 109.96L83.33 110.05L83.35 110.15L83.36 110.25L83.38 110.35L83.39 110.45L83.39 110.54L83.4 110.64L83.41 110.74L83.41 110.84L83.41 110.94L83.41 111.04L83.41 111.14L83.41 111.24L83.4 111.34L83.39 111.44L83.38 111.54L83.38 121.72L108.36 121.72L108.59 121.72L108.81 121.74L109.02 121.76L109.24 121.79L109.45 121.83L109.66 121.88L109.86 121.93L110.07 121.99L110.27 122.06L110.46 122.14L110.65 122.23L110.84 122.32L111.02 122.42L111.2 122.53L111.38 122.64L111.55 122.76L111.71 122.88L111.87 123.02L112.03 123.15L112.18 123.3L112.32 123.45L112.46 123.6L112.59 123.76L112.71 123.93L112.83 124.1L112.95 124.27L113.05 124.45L113.15 124.63L113.25 124.82L113.33 125.01L113.41 125.21L113.48 125.41L113.54 125.61L113.6 125.82L113.64 126.02L113.68 126.24L113.71 126.45L113.74 126.67L113.75 126.89L113.75 127.11L113.75 127.33L113.74 127.55L113.71 127.77L113.68 127.99L113.64 128.2L113.6 128.41L113.54 128.61L113.48 128.82L113.41 129.01L113.33 129.21L113.25 129.4L113.15 129.59L113.05 129.77L112.95 129.95L112.83 130.13L112.71 130.3L112.59 130.46L112.46 130.62L112.32 130.77L112.18 130.92L112.03 131.07L111.87 131.21L111.71 131.34L111.55 131.46L111.38 131.58L111.2 131.7L111.02 131.8L110.84 131.9L110.65 131.99L110.46 132.08L110.27 132.16L110.07 132.23L109.86 132.29L109.66 132.35L109.45 132.39L109.24 132.43L109.02 132.46L108.81 132.49L108.59 132.5L108.36 132.5L77.14 132.5L77.03 132.51L76.92 132.51L76.81 132.52L76.7 132.54L76.59 132.56L76.49 132.58L76.39 132.61L76.28 132.64L76.18 132.68L76.09 132.72L75.99 132.76L75.9 132.81L75.81 132.86L75.72 132.91L75.63 132.97L75.54 133.03L75.46 133.09L75.38 133.16L75.3 133.23L75.23 133.3L75.16 133.37L75.09 133.45L75.02 133.53L74.96 133.61L74.9 133.7L74.84 133.79L74.79 133.88L74.74 133.97L74.69 134.06L74.65 134.16L74.61 134.26L74.57 134.36L74.54 134.46L74.51 134.56L74.49 134.67L74.47 134.77L74.45 134.88L74.44 134.99L74.44 135.1L74.43 135.21L74.44 135.32L74.44 135.43L74.45 135.54L74.47 135.65L74.49 135.75L74.51 135.86L74.54 135.96L74.57 136.06L74.61 136.16L74.65 136.26L74.69 136.36L74.74 136.45L74.79 136.54L74.84 136.63L74.9 136.72L74.96 136.81L75.02 136.89L75.09 136.97L75.16 137.05L75.23 137.12L75.3 137.19L75.38 137.26L75.46 137.33L75.54 137.39L75.63 137.45L75.72 137.51L75.81 137.56L75.9 137.61L75.99 137.66L76.09 137.7L76.18 137.74L76.28 137.78L76.39 137.81L76.49 137.84L76.59 137.86L76.7 137.88L76.81 137.89L76.92 137.91L77.03 137.91L77.14 137.91L135.32 137.91L135.54 137.92L135.76 137.93L135.98 137.95L136.2 137.98L136.41 138.02L136.62 138.07L136.82 138.13L137.03 138.19L137.23 138.26L137.42 138.34L137.61 138.42L137.8 138.52L137.98 138.62L138.16 138.72L138.34 138.84L138.51 138.95L138.67 139.08L138.83 139.21L138.99 139.35L139.13 139.49L139.28 139.64L139.42 139.8L139.55 139.96L139.67 140.12L139.79 140.29L139.91 140.47L140.01 140.65L140.11 140.83L140.2 141.02L140.29 141.21L140.37 141.4L140.44 141.6L140.5 141.81L140.56 142.01L140.6 142.22L140.64 142.43L140.67 142.65L140.7 142.86L140.71 143.08L140.71 143.31L140.71 143.53L140.7 143.75L140.67 143.97L140.64 144.18L140.6 144.39L140.56 144.6L140.5 144.81L140.44 145.01L140.37 145.21L140.29 145.41L140.2 145.6L140.11 145.79L140.01 145.97L139.91 146.15L139.79 146.32L139.67 146.49L139.55 146.66L139.42 146.82L139.28 146.97L139.13 147.12L138.99 147.26L138.83 147.4L138.67 147.53L138.51 147.66L138.34 147.78L138.16 147.89L137.98 148L137.8 148.1L137.61 148.19L137.42 148.28L137.23 148.35L137.03 148.42L136.82 148.49L136.62 148.54L136.41 148.59L136.2 148.63L135.98 148.66L135.76 148.68L135.54 148.69L135.32 148.7L77.14 148.7L76.58 148.69L76.03 148.65L75.49 148.6L74.95 148.52L74.42 148.42L73.9 148.31L73.39 148.17L72.88 148.01L72.38 147.83L71.89 147.64L71.41 147.42L70.95 147.19L70.49 146.94L70.04 146.68L69.6 146.39L69.18 146.09L68.77 145.78L68.37 145.45L67.98 145.1L67.61 144.74L67.25 144.37L66.9 143.98L66.57 143.58L66.26 143.17L65.96 142.75L65.67 142.31L65.41 141.86L65.16 141.4L64.93 140.94L64.71 140.46L64.52 139.97L64.34 139.47L64.18 138.96L64.04 138.45L63.93 137.93L63.83 137.4L63.75 136.86L63.7 136.32L63.66 135.77L63.65 135.21L63.66 134.77L63.68 134.34L63.71 133.91L63.76 133.49L63.82 133.07L63.9 132.65L63.98 132.24L64.08 131.83L64.19 131.43L64.32 131.03L64.45 130.64L64.6 130.26L64.76 129.88L64.93 129.5L65.11 129.14L65.3 128.78L65.51 128.42L65.72 128.07L65.94 127.73L66.18 127.4L66.42 127.07L66.67 126.76L66.93 126.44L67.2 126.14L67.48 125.85L67.77 125.56L68.07 125.28L68.37 125.02L68.69 124.76L69.01 124.51L69.34 124.27L69.67 124.04L70.02 123.81L70.37 123.6L70.72 123.4L71.09 123.21L71.46 123.03L71.83 122.86L72.21 122.71L72.6 122.56L72.6 112.65L72.27 112.15L71.95 111.65L71.63 111.14L71.33 110.63L71.03 110.12L70.74 109.6L70.45 109.08L70.18 108.55L69.91 108.02L69.65 107.49L69.4 106.95L69.16 106.42L68.93 105.87L68.7 105.33L68.48 104.78L68.28 104.23L68.07 103.68L67.88 103.12L67.7 102.56L67.52 102L67.35 101.43L67.2 100.87L67.04 100.3L66.9 99.72L66.77 99.15L66.64 98.57L66.53 97.99L66.42 97.41L66.32 96.83L66.23 96.24L66.14 95.65L66.07 95.07L66 94.47L65.95 93.88L65.9 93.29L65.86 92.69L65.83 92.09L65.81 91.49L65.79 90.89L65.79 90.29L65.8 89.48L65.82 88.68L65.86 87.88L65.92 87.08L65.99 86.29L66.07 85.5L66.17 84.71L66.29 83.92L66.42 83.14L66.57 82.37L66.73 81.6L66.91 80.83L67.1 80.07L67.3 79.31L67.53 78.55L67.76 77.81L68.01 77.06L68.28 76.32L68.56 75.59L68.85 74.87L69.16 74.14L69.48 73.43L69.82 72.72L70.17 72.02L70.54 71.32L70.91 70.64L71.31 69.95L71.71 69.28L72.13 68.61L72.57 67.95L73.02 67.3L73.48 66.66L73.95 66.02L74.44 65.39L74.94 64.77L75.46 64.16L75.99 63.56L76.53 62.97L77.08 62.38L77.65 61.81L78.23 61.24L78.81 60.69L79.41 60.16L80.01 59.63L80.63 59.12L81.25 58.62L81.88 58.14L82.52 57.66L83.16 57.21L83.82 56.76L84.48 56.33L85.15 55.91L85.83 55.51L86.51 55.12L87.2 54.74L87.9 54.38L88.6 54.03L89.31 53.69L90.03 53.37L90.75 53.07L91.48 52.77L92.22 52.5L92.96 52.23L93.71 51.98L94.46 51.75L95.21 51.53L95.97 51.32L96.74 51.13L97.51 50.96L98.28 50.8L99.06 50.65L99.85 50.52L100.63 50.4L101.42 50.3L102.22 50.22L103.01 50.15L103.81 50.09L104.62 50.06L105.42 50.03L106.23 50.02L107.04 50.03L107.84 50.06ZM108.88 90.38L108.99 90.63L109.08 90.87L109.18 91.12L109.26 91.37L109.35 91.62L109.43 91.88L109.5 92.13L109.57 92.39L109.63 92.65L109.69 92.91L109.75 93.18L109.8 93.44L109.84 93.71L109.88 93.98L109.91 94.25L109.94 94.53L109.96 94.8L109.97 95.08L109.98 95.35L109.98 95.63L109.98 95.91L109.97 96.19L109.96 96.47L109.94 96.74L109.91 97.01L109.88 97.29L109.84 97.56L109.8 97.82L109.75 98.09L109.69 98.35L109.63 98.62L109.57 98.88L109.5 99.13L109.43 99.39L109.35 99.64L109.26 99.9L109.18 100.15L109.08 100.39L108.99 100.64L108.88 100.88L108.78 101.13L133.66 114.63L134.34 113.89L134.99 113.12L135.61 112.34L136.2 111.54L136.76 110.72L137.29 109.88L137.79 109.02L138.26 108.15L138.69 107.26L139.1 106.35L139.47 105.43L139.8 104.5L140.1 103.55L140.37 102.6L140.61 101.63L140.8 100.65L140.97 99.66L141.1 98.67L141.19 97.66L141.24 96.65L141.26 95.63L141.24 94.62L141.19 93.61L141.1 92.6L140.97 91.61L140.8 90.62L140.61 89.64L140.37 88.67L140.1 87.71L139.8 86.77L139.47 85.84L139.1 84.92L138.69 84.01L138.26 83.12L137.79 82.25L137.29 81.39L136.76 80.55L136.2 79.73L135.61 78.93L134.99 78.14L134.34 77.38L133.66 76.64L108.78 90.14L108.88 90.38ZM94.6 93.76L94.03 94.6L93.81 95.63L94.03 96.66L94.6 97.51L95.46 98.08L96.51 98.29L97.55 98.08L98.41 97.51L98.99 96.66L99.2 95.63L98.99 94.6L98.41 93.76L97.55 93.19L96.51 92.98L95.46 93.19L94.6 93.76Z" id="b15iJqUAOj"></path></defs><g><g><g><use xlink:href="#d15yw4hexk" opacity="1" fill="#a1a1aa" fill-opacity="1"></use><g><use xlink:href="#d15yw4hexk" opacity="1" fill-opacity="0" stroke="#a1a1aa" stroke-width="1" stroke-opacity="0"></use></g></g><g><use xlink:href="#acIpDZo1u" opacity="1" fill="#a1a1aa" fill-opacity="1"></use><g><use xlink:href="#acIpDZo1u" opacity="1" fill-opacity="0" stroke="#a1a1aa" stroke-width="1" stroke-opacity="0"></use></g></g><g><use xlink:href="#b15iJqUAOj" opacity="1" fill="#a1a1aa" fill-opacity="1"></use><g><use xlink:href="#b15iJqUAOj" opacity="1" fill-opacity="0" stroke="#a1a1aa" stroke-width="1" stroke-opacity="0"></use></g></g></g></g></svg>