<?xml version="1.0" encoding="UTF-8" standalone="no"?>
<!DOCTYPE svg PUBLIC "-//W3C//DTD SVG 1.1//EN" "http://www.w3.org/Graphics/SVG/1.1/DTD/svg11.dtd">
<svg version="1.1" xmlns="http://www.w3.org/2000/svg" xmlns:xlink="http://www.w3.org/1999/xlink" preserveAspectRatio="xMidYMid meet" viewBox="0 0 200 200" width="200" height="200"><defs><path d="M166.61 18.6L167.25 18.67L167.87 18.76L168.49 18.87L169.1 19.01L169.7 19.17L170.3 19.36L170.88 19.56L171.45 19.79L172.01 20.04L172.56 20.31L173.09 20.61L173.61 20.92L174.12 21.25L174.62 21.6L175.1 21.96L175.57 22.35L176.02 22.75L176.46 23.17L176.88 23.61L177.28 24.06L177.67 24.53L178.03 25.01L178.38 25.51L178.71 26.02L179.03 26.54L179.32 27.08L179.59 27.62L179.84 28.18L180.07 28.75L180.27 29.34L180.46 29.93L180.62 30.53L180.76 31.14L180.87 31.76L180.96 32.39L181.03 33.02L181.07 33.66L181.08 34.31L181.07 34.84L181.04 35.36L181 35.88L180.94 36.39L180.87 36.9L180.78 37.4L180.67 37.9L180.54 38.39L180.41 38.87L180.25 39.35L180.08 39.82L179.9 40.29L179.71 40.75L179.49 41.2L179.27 41.64L179.03 42.07L178.78 42.5L178.52 42.91L178.24 43.32L177.95 43.72L177.65 44.11L177.34 44.49L177.02 44.86L176.68 45.22L176.34 45.57L175.98 45.91L175.62 46.23L175.24 46.55L174.85 46.85L174.46 47.14L174.05 47.42L173.64 47.69L173.21 47.95L172.78 48.19L172.34 48.42L171.9 48.63L171.44 48.83L170.98 49.02L170.51 49.19L170.03 49.35L169.92 49.67L169.79 49.98L169.67 50.3L169.54 50.62L169.42 50.94L169.28 51.27L169.15 51.59L169.01 51.92L168.87 52.25L168.72 52.58L168.58 52.92L168.43 53.25L168.27 53.59L168.12 53.93L167.96 54.28L167.8 54.62L167.63 54.97L167.46 55.32L167.29 55.67L167.12 56.02L166.94 56.37L166.76 56.73L166.58 57.09L166.39 57.45L166.2 57.81L166.01 58.18L165.82 58.55L165.62 58.92L165.42 59.29L165.22 59.66L165.01 60.04L164.8 60.41L164.59 60.79L164.37 61.18L164.16 61.56L163.94 61.95L163.71 62.33L163.48 62.72L163.25 63.12L163.02 63.51L163.51 64.37L163.99 65.23L164.46 66.1L164.92 66.98L165.37 67.86L165.8 68.75L166.23 69.65L166.64 70.55L167.04 71.46L167.44 72.38L167.82 73.3L168.18 74.22L168.54 75.16L168.89 76.1L169.22 77.04L169.54 77.99L169.85 78.94L170.15 79.9L170.43 80.87L170.7 81.84L170.96 82.82L171.21 83.8L171.45 84.78L171.67 85.77L171.88 86.77L172.07 87.77L172.26 88.77L172.43 89.78L172.59 90.79L172.73 91.81L172.86 92.83L172.98 93.86L173.08 94.89L173.17 95.92L173.25 96.96L173.31 98L173.36 99.04L173.4 100.09L173.42 101.14L173.43 102.2L173.42 103.25L173.4 104.3L173.36 105.35L173.31 106.39L173.25 107.44L173.17 108.47L173.08 109.51L172.98 110.54L172.86 111.56L172.73 112.58L172.59 113.6L172.43 114.61L172.26 115.62L172.07 116.63L171.88 117.62L171.67 118.62L171.45 119.61L171.21 120.6L170.96 121.58L170.7 122.55L170.43 123.52L170.15 124.49L169.85 125.45L169.54 126.4L169.22 127.35L168.89 128.3L168.54 129.23L168.18 130.17L167.82 131.09L167.44 132.02L167.04 132.93L166.64 133.84L166.23 134.74L165.8 135.64L165.37 136.53L164.92 137.41L164.46 138.29L163.99 139.16L163.51 140.02L163.02 140.88L163.76 142.14L164.46 143.37L165.14 144.58L165.78 145.77L166.39 146.94L166.98 148.09L167.53 149.22L168.06 150.32L168.55 151.41L169.01 152.47L169.45 153.52L169.85 154.54L170.22 155.54L170.56 156.52L170.88 157.48L171.16 158.42L171.41 159.34L171.63 160.24L171.82 161.12L171.99 161.98L172.12 162.82L172.22 163.63L172.29 164.43L172.33 165.21L172.35 165.97L172.33 166.7L172.28 167.42L172.2 168.12L172.09 168.79L171.95 169.45L171.79 170.09L171.59 170.71L171.36 171.31L171.1 171.88L170.81 172.44L170.5 172.98L170.15 173.5L169.77 174L169.36 174.48L168.92 174.95L168.75 175.12L168.58 175.28L168.4 175.44L168.22 175.6L168.04 175.75L167.85 175.9L167.66 176.04L167.47 176.18L167.27 176.31L167.08 176.44L166.88 176.57L166.67 176.69L166.47 176.81L166.26 176.92L166.05 177.03L165.84 177.14L165.62 177.24L165.4 177.33L165.18 177.42L164.95 177.51L164.72 177.6L164.49 177.67L164.26 177.75L164.02 177.82L163.78 177.89L163.54 177.95L163.3 178.01L163.05 178.06L162.8 178.11L162.55 178.15L162.29 178.2L162.03 178.23L161.77 178.26L161.5 178.29L161.24 178.32L160.97 178.33L160.69 178.35L160.42 178.36L160.14 178.37L159.86 178.37L159.39 178.36L158.91 178.35L158.42 178.32L157.93 178.28L157.43 178.22L156.92 178.16L156.4 178.08L155.88 178L155.34 177.9L154.8 177.79L154.26 177.66L153.7 177.53L153.13 177.39L152.56 177.23L151.98 177.06L151.39 176.88L150.8 176.69L150.19 176.48L149.58 176.27L148.96 176.04L148.33 175.8L147.7 175.55L147.05 175.29L146.4 175.02L145.74 174.73L145.07 174.43L144.4 174.12L143.71 173.8L143.02 173.47L142.32 173.13L141.61 172.77L140.89 172.4L140.17 172.02L139.43 171.63L138.69 171.23L137.94 170.82L137.18 170.39L136.42 169.95L135.64 169.5L134.86 169.04L134 169.53L133.14 170.01L132.27 170.48L131.39 170.94L130.51 171.39L129.62 171.83L128.72 172.25L127.82 172.66L126.91 173.07L125.99 173.46L125.07 173.84L124.14 174.21L123.21 174.56L122.27 174.91L121.33 175.24L120.38 175.56L119.43 175.87L118.47 176.17L117.5 176.45L116.53 176.73L115.55 176.99L114.57 177.23L113.59 177.47L112.6 177.69L111.6 177.9L110.6 178.1L109.6 178.28L108.59 178.45L107.58 178.61L106.56 178.75L105.54 178.88L104.51 179L103.48 179.1L102.45 179.2L101.41 179.27L100.37 179.34L99.33 179.38L98.28 179.42L97.23 179.44L96.17 179.45L95.12 179.44L94.07 179.42L93.02 179.38L91.97 179.34L90.93 179.27L89.9 179.2L88.86 179.1L87.83 179L86.81 178.88L85.79 178.75L84.77 178.61L83.76 178.45L82.75 178.28L81.74 178.1L80.74 177.9L79.75 177.69L78.76 177.47L77.77 177.23L76.79 176.99L75.82 176.73L74.85 176.45L73.88 176.17L72.92 175.87L71.97 175.56L71.02 175.24L70.07 174.91L69.13 174.56L68.2 174.21L67.28 173.84L66.35 173.46L65.44 173.07L64.53 172.66L63.63 172.25L62.73 171.83L61.84 171.39L60.96 170.94L60.08 170.48L59.21 170.01L58.35 169.53L57.49 169.04L56.71 169.5L55.93 169.95L55.16 170.39L54.41 170.82L53.66 171.23L52.92 171.63L52.18 172.02L51.46 172.4L50.74 172.77L50.03 173.13L49.33 173.47L48.64 173.8L47.95 174.12L47.28 174.43L46.61 174.73L45.95 175.01L45.29 175.29L44.65 175.55L44.01 175.8L43.39 176.04L42.77 176.27L42.15 176.48L41.55 176.69L40.95 176.88L40.36 177.06L39.78 177.23L39.21 177.39L38.65 177.53L38.09 177.66L37.54 177.79L37 177.9L36.47 178L35.94 178.08L35.43 178.16L34.92 178.22L34.42 178.28L33.92 178.32L33.44 178.35L32.96 178.36L32.49 178.37L32.21 178.37L31.93 178.36L31.65 178.35L31.38 178.33L31.11 178.32L30.84 178.29L30.58 178.26L30.32 178.23L30.06 178.2L29.8 178.15L29.55 178.11L29.3 178.06L29.05 178.01L28.8 177.95L28.56 177.89L28.32 177.82L28.09 177.75L27.85 177.68L27.62 177.6L27.39 177.51L27.17 177.43L26.95 177.33L26.73 177.24L26.51 177.14L26.3 177.03L26.09 176.92L25.88 176.81L25.67 176.69L25.47 176.57L25.27 176.44L25.07 176.31L24.88 176.18L24.69 176.04L24.5 175.9L24.31 175.75L24.13 175.6L23.95 175.44L23.77 175.28L23.59 175.12L23.42 174.95L22.98 174.48L22.58 174L22.2 173.5L21.85 172.98L21.53 172.44L21.25 171.88L20.99 171.31L20.76 170.71L20.56 170.09L20.39 169.45L20.25 168.79L20.15 168.12L20.07 167.42L20.02 166.7L20 165.97L20.01 165.21L20.05 164.43L20.13 163.63L20.23 162.82L20.36 161.98L20.52 161.12L20.71 160.24L20.94 159.34L21.19 158.42L21.47 157.48L21.78 156.52L22.13 155.54L22.5 154.54L22.9 153.52L23.33 152.47L23.8 151.41L24.29 150.32L24.81 149.22L25.37 148.09L25.95 146.94L26.57 145.77L27.21 144.58L27.89 143.37L28.59 142.14L29.33 140.88L28.84 140.02L28.36 139.16L27.89 138.29L27.43 137.41L26.98 136.53L26.54 135.64L26.12 134.74L25.7 133.84L25.3 132.93L24.91 132.01L24.53 131.09L24.16 130.17L23.81 129.23L23.46 128.3L23.13 127.35L22.81 126.4L22.5 125.45L22.2 124.49L21.92 123.52L21.64 122.55L21.38 121.58L21.14 120.6L20.9 119.61L20.68 118.62L20.47 117.62L20.27 116.62L20.09 115.62L19.92 114.61L19.76 113.6L19.62 112.58L19.49 111.56L19.37 110.53L19.26 109.51L19.17 108.47L19.1 107.44L19.03 106.39L18.98 105.35L18.95 104.3L18.93 103.25L18.92 102.2L18.93 101.14L18.95 100.09L18.98 99.04L19.03 98L19.1 96.96L19.17 95.92L19.26 94.89L19.37 93.86L19.49 92.83L19.62 91.81L19.76 90.79L19.92 89.78L20.09 88.77L20.27 87.77L20.47 86.77L20.68 85.77L20.9 84.78L21.14 83.79L21.38 82.81L21.64 81.84L21.92 80.87L22.2 79.9L22.5 78.94L22.81 77.99L23.13 77.04L23.46 76.09L23.81 75.16L24.16 74.22L24.53 73.3L24.91 72.37L25.3 71.46L25.7 70.55L26.12 69.65L26.54 68.75L26.98 67.86L27.43 66.98L27.89 66.1L28.36 65.23L28.84 64.37L29.33 63.51L28.59 62.25L27.89 61.02L27.21 59.81L26.57 58.62L25.95 57.45L25.37 56.3L24.82 55.17L24.29 54.07L23.8 52.98L23.34 51.92L22.9 50.88L22.5 49.85L22.13 48.85L21.78 47.87L21.47 46.91L21.19 45.97L20.94 45.05L20.72 44.15L20.52 43.27L20.36 42.41L20.23 41.58L20.13 40.76L20.06 39.96L20.01 39.18L20 38.43L20.02 37.69L20.07 36.97L20.15 36.27L20.26 35.6L20.39 34.94L20.56 34.3L20.76 33.68L20.99 33.08L21.25 32.51L21.53 31.95L21.85 31.41L22.2 30.89L22.58 30.39L22.98 29.91L23.42 29.44L23.88 29.01L24.37 28.6L24.87 28.22L25.39 27.87L25.93 27.56L26.48 27.27L27.06 27.01L27.66 26.78L28.28 26.58L28.92 26.41L29.57 26.28L30.25 26.17L30.95 26.09L31.66 26.04L32.4 26.02L33.16 26.03L33.94 26.08L34.73 26.15L35.55 26.25L36.39 26.38L37.25 26.54L38.13 26.74L39.02 26.96L39.94 27.21L40.88 27.49L41.85 27.8L42.83 28.15L43.83 28.52L44.85 28.92L45.89 29.36L46.96 29.82L48.04 30.31L49.15 30.84L50.28 31.39L51.43 31.97L52.6 32.59L53.79 33.23L55 33.91L56.23 34.61L57.49 35.35L58.34 34.86L59.21 34.38L60.08 33.91L60.96 33.45L61.84 33L62.73 32.57L63.63 32.14L64.53 31.73L65.44 31.32L66.35 30.93L67.27 30.55L68.2 30.18L69.13 29.83L70.07 29.48L71.02 29.15L71.97 28.83L72.92 28.52L73.88 28.22L74.85 27.94L75.82 27.67L76.79 27.41L77.77 27.16L78.76 26.92L79.75 26.7L80.74 26.49L81.74 26.29L82.75 26.11L83.76 25.94L84.77 25.78L85.79 25.64L86.81 25.51L87.83 25.39L88.86 25.29L89.9 25.2L90.93 25.12L91.97 25.06L93.02 25.01L94.07 24.97L95.12 24.95L96.17 24.94L97.23 24.95L98.28 24.97L99.33 25.01L100.37 25.06L101.41 25.12L102.45 25.2L103.48 25.29L104.51 25.39L105.54 25.51L106.56 25.64L107.58 25.78L108.59 25.94L109.6 26.11L110.6 26.29L111.6 26.49L112.6 26.7L113.59 26.92L114.57 27.16L115.55 27.41L116.53 27.67L117.5 27.94L118.47 28.22L119.43 28.52L120.38 28.83L121.33 29.15L122.27 29.48L123.21 29.83L124.14 30.18L125.07 30.55L125.99 30.93L126.91 31.32L127.82 31.73L128.72 32.14L129.62 32.57L130.51 33L131.39 33.45L132.27 33.91L133.14 34.38L134 34.86L134.86 35.35L135.32 35.08L135.77 34.81L136.23 34.54L136.68 34.29L137.13 34.03L137.57 33.78L138.02 33.53L138.46 33.29L138.89 33.05L139.33 32.81L139.76 32.58L140.19 32.35L140.61 32.13L141.04 31.91L141.46 31.7L141.87 31.49L142.29 31.28L142.7 31.08L143.11 30.88L143.51 30.68L143.92 30.49L144.32 30.3L144.72 30.12L145.11 29.94L145.5 29.76L145.89 29.59L146.28 29.43L146.66 29.26L147.04 29.1L147.42 28.95L147.8 28.8L148.17 28.65L148.54 28.51L148.91 28.37L149.27 28.23L149.64 28.1L149.99 27.98L150.35 27.85L150.7 27.73L151.06 27.62L151.25 27.22L151.46 26.83L151.67 26.44L151.9 26.06L152.13 25.69L152.38 25.33L152.64 24.97L152.9 24.62L153.18 24.28L153.46 23.94L153.76 23.62L154.06 23.3L154.37 22.99L154.69 22.69L155.02 22.4L155.35 22.12L155.7 21.84L156.05 21.58L156.41 21.32L156.77 21.08L157.14 20.84L157.52 20.62L157.91 20.41L158.3 20.2L158.7 20.01L159.11 19.83L159.52 19.66L159.94 19.5L160.36 19.35L160.79 19.22L161.22 19.09L161.66 18.98L162.1 18.88L162.55 18.8L163 18.72L163.46 18.66L163.92 18.61L164.38 18.58L164.85 18.56L165.32 18.55L165.97 18.57L166.61 18.6ZM93.92 141.94L92.79 142.91L91.67 143.87L90.55 144.83L89.43 145.77L88.32 146.7L87.2 147.63L86.09 148.54L84.99 149.45L83.89 150.34L82.79 151.22L81.69 152.09L80.6 152.95L79.51 153.8L78.43 154.64L77.35 155.46L76.28 156.27L75.21 157.08L74.15 157.87L73.09 158.65L72.03 159.41L70.99 160.16L69.94 160.91L68.91 161.63L69.91 162.08L70.92 162.52L71.94 162.94L72.96 163.34L74 163.72L75.04 164.09L76.09 164.44L77.15 164.77L78.22 165.09L79.29 165.38L80.37 165.66L81.46 165.93L82.56 166.17L83.66 166.39L84.77 166.6L85.88 166.79L87 166.95L88.13 167.1L89.26 167.23L90.4 167.34L91.54 167.43L92.69 167.5L93.85 167.56L95.01 167.59L96.17 167.6L97.34 167.59L98.5 167.56L99.65 167.5L100.8 167.43L101.95 167.34L103.09 167.23L104.22 167.1L105.35 166.95L106.47 166.79L107.58 166.6L108.69 166.39L109.79 166.17L110.89 165.93L111.97 165.66L113.06 165.38L114.13 165.09L115.2 164.77L116.25 164.44L117.31 164.09L118.35 163.72L119.38 163.34L120.41 162.94L121.43 162.52L122.44 162.08L123.44 161.63L122.4 160.91L121.36 160.16L120.31 159.41L119.26 158.65L118.2 157.87L117.14 157.08L116.07 156.27L115 155.46L113.92 154.64L112.83 153.8L111.75 152.95L110.66 152.09L109.56 151.22L108.46 150.34L107.36 149.45L106.25 148.54L105.14 147.63L104.03 146.7L102.92 145.77L101.8 144.83L100.68 143.87L99.55 142.91L98.43 141.94L97.3 140.95L96.17 139.96L95.04 140.95L93.92 141.94ZM153.44 153.98L152.39 155.12L151.32 156.24L150.22 157.34L149.1 158.42L147.96 159.47L146.8 160.5L145.61 161.51L148.64 163.03L151.27 164.22L153.52 165.11L155.43 165.74L157.01 166.15L158.28 166.39L159.26 166.49L159.98 166.51L160.45 166.47L160.49 166L160.47 165.28L160.37 164.3L160.13 163.04L159.72 161.46L159.09 159.56L158.2 157.3L157.01 154.67L155.48 151.64L154.47 152.82L153.44 153.98ZM34.15 157.3L33.26 159.56L32.63 161.46L32.22 163.04L31.98 164.3L31.87 165.28L31.86 166L31.9 166.47L32.37 166.51L33.09 166.49L34.07 166.39L35.34 166.15L36.92 165.73L38.82 165.1L41.08 164.22L43.71 163.03L46.73 161.51L45.55 160.5L44.39 159.47L43.25 158.42L42.13 157.34L41.03 156.24L39.96 155.12L38.9 153.98L37.87 152.82L36.86 151.64L35.34 154.67L34.15 157.3ZM36.17 76.18L35.9 76.81L35.64 77.45L35.38 78.09L35.13 78.73L34.88 79.37L34.65 80.02L34.41 80.67L34.19 81.33L33.97 81.98L33.76 82.64L33.56 83.31L33.36 83.97L33.17 84.64L32.98 85.31L32.81 85.99L32.64 86.67L32.47 87.35L32.32 88.03L32.17 88.71L32.03 89.4L31.9 90.09L31.77 90.79L31.65 91.48L31.54 92.18L31.43 92.88L31.34 93.59L31.25 94.29L31.17 95L31.09 95.71L31.03 96.42L30.97 97.14L30.92 97.85L30.87 98.57L30.84 99.29L30.81 100.02L30.79 100.74L30.78 101.47L30.77 102.2L30.79 103.81L30.85 105.42L30.95 107.02L31.08 108.61L31.26 110.19L31.47 111.76L31.72 113.31L32 114.86L32.32 116.39L32.68 117.9L33.07 119.41L33.5 120.89L33.96 122.37L34.45 123.83L34.98 125.27L35.54 126.7L36.13 128.11L36.75 129.51L37.41 130.88L38.09 132.24L38.81 133.58L39.56 134.91L40.33 136.21L41.14 137.49L41.97 138.76L42.84 140L43.73 141.22L44.64 142.42L45.59 143.6L46.56 144.75L47.55 145.89L48.58 147L49.62 148.08L50.69 149.15L51.79 150.18L52.91 151.19L54.05 152.18L55.21 153.14L56.4 154.07L57.61 154.98L57.61 154.98L57.64 154.96L57.69 154.93L57.71 154.92L58.39 154.46L59.09 154L59.78 153.53L60.48 153.06L61.18 152.57L61.88 152.08L62.59 151.59L63.3 151.08L64.02 150.58L64.74 150.06L65.46 149.54L66.18 149.01L66.91 148.48L67.64 147.94L68.37 147.39L69.1 146.84L69.84 146.28L70.58 145.72L71.32 145.15L72.07 144.57L72.81 143.99L73.56 143.4L74.31 142.81L75.07 142.21L75.82 141.61L76.58 141L77.34 140.39L78.1 139.77L78.86 139.14L79.62 138.51L80.39 137.88L81.16 137.24L81.93 136.59L82.7 135.94L83.47 135.28L84.24 134.62L85.02 133.96L85.79 133.29L86.57 132.62L87.34 131.94L87.08 131.69L86.81 131.44L86.55 131.19L86.28 130.94L86.01 130.69L85.75 130.44L85.48 130.18L85.22 129.93L84.95 129.68L84.68 129.43L84.42 129.17L84.15 128.92L83.89 128.67L83.62 128.41L83.35 128.16L83.09 127.9L82.82 127.65L82.56 127.39L82.29 127.13L82.02 126.88L81.76 126.62L81.49 126.36L81.23 126.1L80.96 125.84L80.69 125.58L80.43 125.33L80.16 125.07L79.9 124.81L79.63 124.54L79.37 124.28L79.1 124.02L78.84 123.76L78.57 123.5L78.3 123.24L78.04 122.97L77.77 122.71L77.51 122.45L77.24 122.18L76.98 121.92L76.71 121.65L76.45 121.39L76.19 121.13L75.93 120.87L75.67 120.61L75.41 120.34L75.15 120.08L74.89 119.82L74.63 119.56L74.37 119.3L74.12 119.03L73.86 118.77L73.6 118.51L73.34 118.25L73.09 117.98L72.83 117.72L72.58 117.46L72.32 117.2L72.07 116.93L71.81 116.67L71.56 116.41L71.3 116.15L71.05 115.88L70.8 115.62L70.54 115.36L70.29 115.1L70.04 114.83L69.79 114.57L69.54 114.31L69.29 114.04L69.04 113.78L68.79 113.52L68.54 113.26L68.29 112.99L68.04 112.73L67.79 112.47L67.54 112.2L67.29 111.94L67.05 111.68L66.8 111.42L66.56 111.15L66.43 111.19L66.31 111.23L66.19 111.27L66.07 111.31L65.95 111.35L65.82 111.39L65.7 111.42L65.58 111.46L65.45 111.49L65.33 111.52L65.2 111.55L65.08 111.58L64.95 111.61L64.83 111.64L64.7 111.67L64.57 111.7L64.44 111.72L64.32 111.75L64.19 111.77L64.06 111.79L63.93 111.81L63.8 111.83L63.67 111.85L63.54 111.87L63.41 111.89L63.28 111.9L63.15 111.92L63.02 111.93L62.89 111.95L62.76 111.96L62.63 111.97L62.49 111.98L62.36 111.99L62.23 111.99L62.1 112L61.96 112.01L61.83 112.01L61.69 112.01L61.56 112.01L61.43 112.01L60.78 112L60.14 111.96L59.5 111.9L58.87 111.81L58.25 111.69L57.64 111.56L57.04 111.39L56.45 111.21L55.87 111L55.3 110.77L54.74 110.52L54.19 110.25L53.65 109.96L53.13 109.65L52.62 109.32L52.12 108.97L51.64 108.6L51.18 108.22L50.72 107.81L50.29 107.39L49.87 106.96L49.46 106.51L49.08 106.04L48.71 105.56L48.36 105.06L48.03 104.55L47.72 104.03L47.43 103.49L47.16 102.94L46.91 102.38L46.68 101.81L46.47 101.23L46.29 100.64L46.12 100.04L45.99 99.43L45.87 98.81L45.78 98.18L45.72 97.55L45.68 96.9L45.67 96.25L45.67 96.06L45.67 95.87L45.68 95.68L45.68 95.49L45.69 95.3L45.71 95.11L45.72 94.92L45.74 94.73L45.76 94.54L45.78 94.35L45.8 94.17L45.83 93.98L45.86 93.8L45.89 93.61L45.92 93.43L45.96 93.24L45.99 93.06L46.03 92.88L46.07 92.7L46.12 92.52L46.16 92.34L46.21 92.16L46.26 91.98L46.31 91.81L46.36 91.63L46.42 91.46L46.47 91.28L46.53 91.11L46.59 90.94L46.66 90.77L46.72 90.6L46.79 90.43L46.86 90.26L46.93 90.09L47 89.92L47.07 89.76L47.15 89.59L47.23 89.43L47.31 89.27L47.39 89.1L47.1 88.74L46.81 88.38L46.52 88.01L46.23 87.65L45.94 87.29L45.66 86.93L45.38 86.56L45.09 86.2L44.81 85.84L44.53 85.48L44.25 85.12L43.98 84.76L43.7 84.41L43.42 84.05L43.15 83.69L42.88 83.33L42.61 82.98L42.34 82.62L42.07 82.26L41.8 81.91L41.53 81.55L41.27 81.2L41.01 80.85L40.74 80.49L40.48 80.14L40.22 79.79L39.97 79.44L39.71 79.09L39.45 78.74L39.2 78.39L38.95 78.04L38.7 77.69L38.45 77.34L38.2 77L37.95 76.65L37.7 76.31L37.46 75.96L37.22 75.62L36.97 75.27L36.73 74.93L36.45 75.55L36.17 76.18ZM154.06 77.12L153.27 78.22L152.46 79.33L151.64 80.45L150.8 81.57L149.95 82.7L149.09 83.83L148.21 84.97L147.32 86.12L146.42 87.26L145.51 88.42L144.59 89.57L143.65 90.73L142.7 91.9L141.74 93.06L140.77 94.24L139.78 95.41L138.79 96.59L137.78 97.77L136.77 98.95L135.74 100.14L134.7 101.33L133.66 102.51L132.6 103.71L131.53 104.9L130.45 106.09L129.37 107.29L128.27 108.49L127.16 109.68L126.05 110.88L124.92 112.08L123.79 113.28L122.65 114.48L121.5 115.67L120.34 116.87L119.18 118.07L118 119.27L116.82 120.46L115.63 121.65L115.37 121.92L115.1 122.18L114.84 122.45L114.57 122.71L114.31 122.97L114.04 123.24L113.78 123.5L113.51 123.76L113.25 124.02L112.98 124.28L112.72 124.54L112.45 124.81L112.18 125.07L111.92 125.33L111.65 125.58L111.39 125.84L111.12 126.1L110.86 126.36L110.59 126.62L110.32 126.88L110.06 127.13L109.79 127.39L109.53 127.65L109.26 127.9L108.99 128.16L108.73 128.41L108.46 128.67L108.2 128.92L107.93 129.17L107.66 129.43L107.4 129.68L107.13 129.93L106.87 130.18L106.6 130.44L106.33 130.69L106.07 130.94L105.8 131.19L105.53 131.44L105.27 131.69L105 131.94L105.78 132.62L106.56 133.29L107.33 133.96L108.11 134.62L108.88 135.28L109.65 135.94L110.42 136.59L111.19 137.24L111.96 137.88L112.72 138.51L113.49 139.14L114.25 139.77L115.01 140.39L115.77 141L116.53 141.61L117.28 142.21L118.03 142.81L118.79 143.4L119.53 143.99L120.28 144.57L121.03 145.15L121.77 145.72L122.51 146.28L123.24 146.84L123.98 147.39L124.71 147.94L125.44 148.48L126.17 149.01L126.89 149.54L127.61 150.06L128.33 150.58L129.04 151.08L129.75 151.59L130.46 152.08L131.17 152.57L131.87 153.06L132.57 153.53L133.26 154L133.95 154.46L134.64 154.92L134.64 154.92L134.67 154.94L134.72 154.97L134.74 154.98L135.95 154.07L137.13 153.14L138.3 152.18L139.44 151.19L140.56 150.18L141.65 149.15L142.72 148.08L143.77 147L144.79 145.89L145.79 144.75L146.76 143.6L147.7 142.42L148.62 141.22L149.51 140L150.37 138.76L151.21 137.49L152.01 136.21L152.79 134.91L153.54 133.58L154.25 132.24L154.94 130.88L155.59 129.51L156.22 128.11L156.81 126.7L157.37 125.27L157.9 123.83L158.39 122.37L158.85 120.89L159.28 119.41L159.67 117.9L160.02 116.39L160.34 114.86L160.63 113.31L160.88 111.76L161.09 110.19L161.26 108.61L161.4 107.02L161.5 105.42L161.55 103.81L161.57 102.2L161.57 101.47L161.56 100.74L161.54 100.02L161.51 99.29L161.47 98.57L161.43 97.85L161.38 97.14L161.32 96.42L161.25 95.71L161.18 95L161.1 94.29L161.01 93.59L160.91 92.88L160.81 92.18L160.7 91.48L160.58 90.79L160.45 90.09L160.32 89.4L160.18 88.72L160.03 88.03L159.87 87.35L159.71 86.67L159.54 85.99L159.36 85.31L159.18 84.64L158.99 83.97L158.79 83.31L158.59 82.64L158.38 81.98L158.16 81.33L157.93 80.67L157.7 80.02L157.46 79.37L157.22 78.73L156.97 78.09L156.71 77.45L156.44 76.81L156.17 76.18L155.9 75.55L155.61 74.93L154.84 76.02L154.06 77.12ZM92.94 36.87L91.34 36.97L89.76 37.11L88.18 37.28L86.61 37.49L85.06 37.74L83.51 38.02L81.98 38.34L80.47 38.7L78.96 39.09L77.47 39.52L76 39.98L74.54 40.47L73.1 41L71.67 41.56L70.26 42.15L68.86 42.77L67.49 43.43L66.13 44.12L64.79 44.83L63.46 45.58L62.16 46.36L60.88 47.16L59.61 48L58.37 48.86L57.15 49.75L55.95 50.66L54.77 51.61L53.61 52.58L52.48 53.58L51.37 54.6L50.28 55.64L49.22 56.72L48.19 57.81L47.17 58.93L46.19 60.07L45.23 61.24L44.29 62.42L43.39 63.63L43.39 63.63L43.42 63.69L43.43 63.7L43.44 63.71L43.45 63.73L43.72 64.15L44 64.56L44.29 64.99L44.57 65.41L44.86 65.83L45.14 66.25L45.44 66.68L45.73 67.11L46.03 67.53L46.33 67.96L46.63 68.39L46.93 68.83L47.24 69.26L47.54 69.69L47.86 70.13L48.17 70.57L48.48 71L48.8 71.44L49.12 71.88L49.44 72.32L49.77 72.76L50.1 73.21L50.43 73.65L50.76 74.1L51.09 74.54L51.43 74.99L51.77 75.44L52.11 75.88L52.45 76.33L52.79 76.78L53.14 77.24L53.49 77.69L53.84 78.14L54.19 78.6L54.55 79.05L54.91 79.51L55.26 79.96L55.63 80.42L55.99 80.88L56.36 81.34L56.48 81.3L56.6 81.26L56.72 81.22L56.84 81.18L56.96 81.14L57.08 81.11L57.2 81.07L57.32 81.04L57.45 81.01L57.57 80.98L57.69 80.94L57.82 80.92L57.94 80.89L58.07 80.86L58.19 80.83L58.32 80.81L58.44 80.78L58.57 80.76L58.7 80.73L58.82 80.71L58.95 80.69L59.08 80.67L59.2 80.65L59.33 80.63L59.46 80.62L59.59 80.6L59.72 80.59L59.85 80.57L59.98 80.56L60.11 80.55L60.24 80.54L60.37 80.53L60.5 80.52L60.63 80.51L60.76 80.51L60.9 80.5L61.03 80.5L61.16 80.5L61.29 80.5L61.43 80.49L62.07 80.51L62.72 80.55L63.35 80.61L63.98 80.7L64.6 80.82L65.21 80.95L65.81 81.11L66.4 81.3L66.98 81.51L67.55 81.73L68.11 81.99L68.66 82.26L69.2 82.55L69.72 82.86L70.23 83.19L70.73 83.54L71.21 83.91L71.68 84.29L72.13 84.7L72.56 85.12L72.98 85.55L73.39 86L73.77 86.47L74.14 86.95L74.49 87.45L74.82 87.96L75.13 88.48L75.42 89.02L75.69 89.57L75.94 90.13L76.17 90.7L76.38 91.28L76.56 91.87L76.73 92.47L76.86 93.08L76.98 93.7L77.07 94.33L77.13 94.96L77.17 95.61L77.19 96.25L77.18 96.45L77.18 96.64L77.17 96.83L77.17 97.02L77.16 97.2L77.14 97.39L77.13 97.58L77.11 97.77L77.09 97.95L77.07 98.14L77.05 98.33L77.02 98.51L77 98.69L76.97 98.88L76.93 99.06L76.9 99.24L76.86 99.42L76.83 99.6L76.79 99.78L76.74 99.96L76.7 100.14L76.65 100.32L76.6 100.49L76.55 100.67L76.5 100.84L76.45 101.02L76.39 101.19L76.33 101.36L76.27 101.53L76.21 101.7L76.15 101.87L76.08 102.04L76.01 102.21L75.94 102.37L75.87 102.54L75.8 102.7L75.73 102.87L75.65 103.03L75.57 103.19L75.49 103.35L75.72 103.6L75.96 103.85L76.19 104.1L76.42 104.35L76.66 104.6L76.89 104.84L77.13 105.09L77.37 105.34L77.6 105.59L77.84 105.84L78.07 106.09L78.31 106.33L78.55 106.58L78.79 106.83L79.03 107.08L79.26 107.33L79.5 107.58L79.74 107.82L79.98 108.07L80.22 108.32L80.46 108.57L80.7 108.82L80.94 109.07L81.19 109.31L81.43 109.56L81.67 109.81L81.91 110.06L82.16 110.3L82.4 110.55L82.64 110.8L82.89 111.05L83.13 111.3L83.37 111.54L83.62 111.79L83.86 112.04L84.11 112.28L84.36 112.53L84.6 112.78L84.85 113.03L85.09 113.27L85.37 113.55L85.65 113.82L85.92 114.1L86.2 114.37L86.47 114.65L86.75 114.92L87.03 115.19L87.3 115.47L87.58 115.74L87.86 116.01L88.13 116.28L88.41 116.55L88.69 116.82L88.96 117.09L89.24 117.36L89.52 117.63L89.79 117.9L90.07 118.17L90.35 118.44L90.62 118.71L90.9 118.97L91.18 119.24L91.46 119.51L91.73 119.77L92.01 120.04L92.29 120.3L92.57 120.57L92.84 120.83L93.12 121.09L93.4 121.36L93.68 121.62L93.95 121.88L94.23 122.14L94.51 122.41L94.79 122.67L95.06 122.93L95.34 123.19L95.62 123.45L95.9 123.7L96.17 123.96L96.45 123.7L96.73 123.45L97.01 123.19L97.28 122.93L97.56 122.67L97.84 122.41L98.12 122.14L98.39 121.88L98.67 121.62L98.95 121.36L99.23 121.09L99.5 120.83L99.78 120.57L100.06 120.3L100.34 120.04L100.61 119.77L100.89 119.51L101.17 119.24L101.44 118.97L101.72 118.71L102 118.44L102.28 118.17L102.55 117.9L102.83 117.63L103.11 117.36L103.38 117.09L103.66 116.82L103.94 116.55L104.21 116.28L104.49 116.01L104.77 115.74L105.04 115.47L105.32 115.19L105.6 114.92L105.87 114.65L106.15 114.37L106.42 114.1L106.7 113.82L106.98 113.55L107.25 113.27L108.52 112L109.78 110.72L111.04 109.44L112.28 108.16L113.51 106.88L114.74 105.6L115.95 104.32L117.16 103.03L118.35 101.75L119.54 100.47L120.71 99.19L121.87 97.91L123.02 96.63L124.16 95.35L125.29 94.08L126.41 92.81L127.51 91.54L128.6 90.27L129.68 89L130.74 87.74L131.79 86.49L132.83 85.23L133.86 83.98L134.87 82.74L135.86 81.5L136.84 80.27L137.81 79.04L138.76 77.82L139.7 76.6L140.62 75.39L141.52 74.19L142.41 73L143.28 71.81L144.13 70.63L144.97 69.46L145.79 68.29L146.59 67.14L147.38 65.99L148.15 64.86L148.9 63.73L148.9 63.73L148.94 63.66L148.96 63.63L148.05 62.42L147.12 61.24L146.16 60.07L145.17 58.93L144.16 57.81L143.12 56.72L142.06 55.64L140.98 54.6L139.87 53.58L138.73 52.58L137.58 51.61L136.4 50.67L135.2 49.75L133.98 48.86L132.73 48L131.47 47.16L130.19 46.36L128.88 45.58L127.56 44.83L126.22 44.12L124.86 43.43L123.48 42.77L122.09 42.15L120.68 41.56L119.25 41L117.81 40.47L116.35 39.98L114.87 39.52L113.38 39.09L111.88 38.7L110.36 38.34L108.83 38.02L107.29 37.74L105.74 37.49L104.17 37.28L102.59 37.11L101 36.97L99.4 36.87L97.79 36.81L96.17 36.79L94.55 36.81L92.94 36.87ZM58.66 93.49L57.82 94.73L57.52 96.25L57.82 97.77L58.66 99.02L59.91 99.86L61.43 100.16L62.95 99.86L64.19 99.02L65.03 97.77L65.33 96.25L65.03 94.73L64.19 93.49L62.95 92.65L61.43 92.35L59.91 92.65L58.66 93.49ZM149.44 40.99L148.73 41.32L147.99 41.68L147.23 42.06L146.44 42.46L145.62 42.89L147.14 44.19L148.62 45.52L150.06 46.9L151.47 48.31L152.85 49.76L154.19 51.24L155.49 52.76L155.86 52.03L156.22 51.33L156.57 50.65L156.89 49.99L157.19 49.35L157.48 48.73L157.75 48.13L156.46 47.34L155.25 46.42L154.14 45.4L153.12 44.28L152.22 43.07L151.44 41.77L150.78 40.39L150.12 40.68L149.44 40.99ZM31.86 38.39L31.87 39.11L31.98 40.09L32.22 41.36L32.63 42.94L33.26 44.84L34.15 47.1L35.34 49.73L36.86 52.75L37.87 51.57L38.9 50.41L39.95 49.27L41.03 48.15L42.13 47.05L43.24 45.98L44.39 44.92L45.55 43.89L46.73 42.89L43.7 41.36L41.07 40.17L38.81 39.28L36.91 38.65L35.33 38.24L34.06 38L33.08 37.89L32.37 37.88L31.9 37.92L31.86 38.39ZM162.56 31.55L161.72 32.79L161.41 34.31L161.72 35.83L162.56 37.07L163.8 37.91L165.32 38.22L166.84 37.91L168.08 37.07L168.92 35.83L169.23 34.31L168.92 32.79L168.08 31.55L166.84 30.71L165.32 30.4L163.8 30.71L162.56 31.55Z" id="c2TgoRkIw6"></path></defs><g><g><g><use xlink:href="#c2TgoRkIw6" opacity="1" fill="#a1a1aa" fill-opacity="1"></use><g><use xlink:href="#c2TgoRkIw6" opacity="1" fill-opacity="0" stroke="#a1a1aa" stroke-width="1" stroke-opacity="0"></use></g></g></g></g></svg>