<?xml version="1.0" encoding="UTF-8" standalone="no"?>
<!DOCTYPE svg PUBLIC "-//W3C//DTD SVG 1.1//EN" "http://www.w3.org/Graphics/SVG/1.1/DTD/svg11.dtd">
<svg version="1.1" xmlns="http://www.w3.org/2000/svg" xmlns:xlink="http://www.w3.org/1999/xlink" preserveAspectRatio="xMidYMid meet" viewBox="0 0 200 200" width="200" height="200"><defs><path d="M100 151.42C89.72 151.42 79.43 161.7 69.15 161.7C58.86 161.7 48.58 151.42 38.3 151.42C31.61 151.42 24.41 156.05 17.73 159.13C17.73 161.19 17.73 177.64 17.73 179.7C24.41 176.61 31.61 171.99 38.3 171.99C48.58 171.99 58.86 182.27 69.15 182.27C79.43 182.27 89.72 171.99 100 171.99C110.28 171.99 120.57 182.27 130.85 182.27C141.14 182.27 151.42 171.99 161.7 171.99C168.39 171.99 175.59 176.61 182.27 179.7C182.27 177.64 182.27 161.19 182.27 159.13C175.59 156.05 168.39 151.42 161.7 151.42C151.42 151.42 141.14 161.7 130.85 161.7C120.57 161.7 110.28 151.42 100 151.42Z" id="blJVH91i"></path><path d="M130.85 120.57C120.57 120.57 110.28 110.28 100 110.28C89.72 110.28 79.43 120.57 69.15 120.57C58.86 120.57 48.58 110.28 38.3 110.28C31.61 110.28 24.41 114.91 17.73 118C17.73 120.05 17.73 136.51 17.73 138.56C24.41 135.48 31.61 130.85 38.3 130.85C48.58 130.85 58.86 141.14 69.15 141.14C79.43 141.14 89.72 130.85 100 130.85C110.28 130.85 120.57 141.14 130.85 141.14C141.14 141.14 151.42 130.85 161.7 130.85C168.39 130.85 175.59 135.48 182.27 138.56C182.27 136.51 182.27 120.05 182.27 118C175.59 114.91 168.39 110.28 161.7 110.28C151.42 110.28 141.14 120.57 130.85 120.57Z" id="bx1YDbNdD"></path><path d="M100 17.73C100 17.73 74.29 59.89 74.29 74.29C74.29 88.69 85.6 100 100 100C114.4 100 125.71 88.69 125.71 74.29C125.71 59.89 105.14 29.04 100 17.73Z" id="fan4LfzEA"></path></defs><g><g><g><use xlink:href="#blJVH91i" opacity="1" fill="#a1a1aa" fill-opacity="1"></use><g><use xlink:href="#blJVH91i" opacity="1" fill-opacity="0" stroke="#a1a1aa" stroke-width="1" stroke-opacity="0"></use></g></g><g><use xlink:href="#bx1YDbNdD" opacity="1" fill="#a1a1aa" fill-opacity="1"></use><g><use xlink:href="#bx1YDbNdD" opacity="1" fill-opacity="0" stroke="#a1a1aa" stroke-width="1" stroke-opacity="0"></use></g></g><g><use xlink:href="#fan4LfzEA" opacity="1" fill="#a1a1aa" fill-opacity="1"></use><g><use xlink:href="#fan4LfzEA" opacity="1" fill-opacity="0" stroke="#a1a1aa" stroke-width="1" stroke-opacity="0"></use></g></g></g></g></svg>